<?xml version="1.0" encoding="UTF-8" standalone="no"?>
<!-- Created with Inkscape (http://www.inkscape.org/) -->

<svg
   xmlns:dc="http://purl.org/dc/elements/1.1/"
   xmlns:cc="http://creativecommons.org/ns#"
   xmlns:rdf="http://www.w3.org/1999/02/22-rdf-syntax-ns#"
   xmlns:svg="http://www.w3.org/2000/svg"
   xmlns="http://www.w3.org/2000/svg"
   xmlns:sodipodi="http://sodipodi.sourceforge.net/DTD/sodipodi-0.dtd"
   xmlns:inkscape="http://www.inkscape.org/namespaces/inkscape"
   id="svg4136"
   version="1.1"
   inkscape:version="0.92.4 (5da689c313, 2019-01-14)"
   width="806.81042"
   height="588.71942"
   viewBox="0 0 806.81042 588.71944"
   sodipodi:docname="BSOD_Windows_8.svg">
  <metadata
     id="metadata4142">
    <rdf:RDF>
      <cc:Work
         rdf:about="">
        <dc:format>image/svg+xml</dc:format>
        <dc:type
           rdf:resource="http://purl.org/dc/dcmitype/StillImage" />
        <dc:title></dc:title>
      </cc:Work>
    </rdf:RDF>
  </metadata>
  <defs
     id="defs4140" />
  <sodipodi:namedview
     pagecolor="#ffffff"
     bordercolor="#666666"
     borderopacity="1"
     objecttolerance="10"
     gridtolerance="10"
     guidetolerance="10"
     inkscape:pageopacity="0"
     inkscape:pageshadow="2"
     inkscape:window-width="1920"
     inkscape:window-height="1019"
     id="namedview4138"
     showgrid="false"
     inkscape:zoom="0.96274528"
     inkscape:cx="206.82826"
     inkscape:cy="279.03203"
     inkscape:window-x="-9"
     inkscape:window-y="-9"
     inkscape:window-maximized="1"
     inkscape:current-layer="svg4136"
     fit-margin-top="0"
     fit-margin-left="0"
     fit-margin-right="0"
     fit-margin-bottom="0" />
  <rect
     style="opacity:1;fill:#1173aa;fill-opacity:1;stroke:none;stroke-width:2.52128243;stroke-linecap:round;stroke-linejoin:round;stroke-miterlimit:4;stroke-dasharray:none;stroke-opacity:1"
     id="rect4836"
     width="806.81042"
     height="588.71942"
     x="0"
     y="0" />
  <g
     id="g4499"
     transform="matrix(4.2021373,0,0,4.2021373,0,1.0984253e-5)">
    <g
       id="text4146"
       style="font-style:normal;font-weight:normal;font-size:15px;line-height:125%;font-family:sans-serif;letter-spacing:0px;word-spacing:0px;fill:#ffffff;fill-opacity:1;stroke:none;stroke-width:1px;stroke-linecap:butt;stroke-linejoin:miter;stroke-opacity:1">
      <path
         id="path4495"
         style="font-style:normal;font-variant:normal;font-weight:normal;font-stretch:normal;font-size:40px;font-family:Selawik;-inkscape-font-specification:Selawik;fill:#ffffff"
         d="m 28.976126,48.524788 q -1.09375,0 -1.835938,-0.703125 -0.742187,-0.722656 -0.742187,-1.777344 0,-1.074219 0.742187,-1.777344 0.742188,-0.722656 1.835938,-0.722656 1.113281,0 1.855468,0.722656 0.742188,0.703125 0.742188,1.777344 0,1.054688 -0.742188,1.777344 -0.742187,0.703125 -1.855468,0.703125 z m 0,14.902344 q -1.09375,0 -1.835938,-0.703125 -0.742187,-0.722657 -0.742187,-1.777344 0,-1.074219 0.742187,-1.777344 0.742188,-0.722656 1.835938,-0.722656 1.113281,0 1.855468,0.722656 0.742188,0.703125 0.742188,1.777344 0,1.054687 -0.742188,1.777344 -0.742187,0.703125 -1.855468,0.703125 z"
         inkscape:connector-curvature="0" />
      <path
         id="path4497"
         style="font-style:normal;font-variant:normal;font-weight:normal;font-stretch:normal;font-size:40px;font-family:Selawik;-inkscape-font-specification:Selawik;fill:#ffffff"
         d="m 42.101126,68.974007 q -3.125,-3.417969 -4.53125,-7.363282 -1.386719,-3.964843 -1.386719,-9.335937 0,-5.214844 1.347656,-9.160156 1.367188,-3.964844 4.375,-7.539063 l 1.875,1.5625 q -2.382812,3.417969 -3.476562,7.011719 -1.074219,3.574219 -1.074219,8.125 0,4.433594 1.132812,8.027344 1.132813,3.574218 3.652344,7.109375 z"
         inkscape:connector-curvature="0" />
    </g>
    <g
       id="text4150"
       style="font-style:normal;font-weight:normal;font-size:7.5px;line-height:142.99999475%;font-family:sans-serif;letter-spacing:0px;word-spacing:0px;fill:#ffffff;fill-opacity:1;stroke:none;stroke-width:1px;stroke-linecap:butt;stroke-linejoin:miter;stroke-opacity:1">
      <path
         id="path4364"
         style="line-height:142.99999475%;letter-spacing:-0.30000001px;fill:#ffffff"
         d="m 29.713547,80.950829 -1.688233,-3.325196 h 0.688477 l 1.186523,2.391358 q 0.02197,0.04761 0.05859,0.142822 0.03662,0.09155 0.06958,0.179443 h 0.01099 q 0.03296,-0.120849 0.135499,-0.322265 l 1.241455,-2.391358 h 0.644531 l -1.732178,3.310547 v 1.940918 h -0.615234 z"
         inkscape:connector-curvature="0" />
      <path
         id="path4366"
         style="line-height:142.99999475%;letter-spacing:-0.30000001px;fill:#ffffff"
         d="m 34.016818,82.968651 q -0.55664,0 -0.981445,-0.230713 -0.421143,-0.230713 -0.655518,-0.651856 -0.230712,-0.424804 -0.230712,-0.977783 0,-0.560302 0.230712,-0.988769 0.234375,-0.428467 0.655518,-0.662842 0.424805,-0.234375 0.981445,-0.234375 0.545655,0 0.959473,0.234375 0.413818,0.234375 0.637207,0.662842 0.223389,0.424804 0.219727,0.988769 0,0.556641 -0.227051,0.977783 -0.223389,0.421143 -0.637207,0.651856 -0.410157,0.230713 -0.952149,0.230713 z m 0,-0.578613 q 0.344239,0 0.60791,-0.157471 0.267334,-0.161133 0.413819,-0.45044 0.150146,-0.292968 0.157471,-0.673828 -0.0073,-0.388183 -0.157471,-0.684814 -0.150147,-0.296631 -0.413819,-0.457764 -0.263671,-0.164795 -0.60791,-0.164795 -0.366211,0 -0.648193,0.164795 -0.27832,0.164795 -0.432129,0.461426 -0.150146,0.296631 -0.150146,0.688476 0,0.38086 0.150146,0.670166 0.153809,0.289307 0.432129,0.446778 0.27832,0.157471 0.648193,0.157471 z"
         inkscape:connector-curvature="0" />
      <path
         id="path4368"
         style="font-style:normal;font-variant:normal;font-weight:normal;font-stretch:normal;line-height:142.99999475%;font-family:Selawik;-inkscape-font-specification:Selawik;fill:#ffffff"
         d="m 39.323508,83.01992 q -0.212403,-0.380859 -0.300293,-0.717773 -0.05493,0.150146 -0.212403,0.300293 -0.153808,0.150146 -0.402832,0.252685 -0.245361,0.102539 -0.560302,0.102539 -0.516358,0 -0.834961,-0.201416 -0.318604,-0.201416 -0.454102,-0.520019 -0.135498,-0.322266 -0.135498,-0.706787 v -2.215576 h 0.600586 v 2.028808 q 0,0.479737 0.197754,0.769043 0.201416,0.289307 0.758057,0.289307 0.413818,0 0.684814,-0.194092 0.270996,-0.197754 0.270996,-0.655518 v -2.24121 h 0.600586 v 2.358398 q 0.0037,0.53833 0.318604,1.105957 z"
         inkscape:connector-curvature="0" />
      <path
         id="path4370"
         style="font-style:normal;font-variant:normal;font-weight:normal;font-stretch:normal;line-height:142.99999475%;font-family:Selawik;-inkscape-font-specification:Selawik;fill:#ffffff"
         d="m 41.29006,79.654442 q 0.377197,-0.435791 0.966797,-0.435791 0.164795,0 0.344238,0.03296 L 42.498556,79.8229 q -0.102539,-0.01099 -0.201416,-0.01099 -0.567627,0 -0.941162,0.351562 v 2.713623 h -0.600586 v -3.566894 h 0.454102 l 0.08057,0.344238 z"
         inkscape:connector-curvature="0" />
      <path
         id="path4372"
         style="font-style:normal;font-variant:normal;font-weight:normal;font-stretch:normal;line-height:142.99999475%;font-family:Selawik;-inkscape-font-specification:Selawik;fill:#ffffff"
         d="m 45.497824,77.625633 h 1.442871 q 0.545654,0 0.941162,0.179444 0.39917,0.179443 0.611572,0.531005 0.212403,0.351563 0.212403,0.856934 0,0.516357 -0.245362,0.900879 -0.241699,0.384521 -0.67749,0.593262 -0.432129,0.205078 -0.985107,0.205078 h -0.684815 v 1.984863 h -0.615234 z m 1.256103,2.713623 q 0.615235,0 0.963135,-0.281982 0.3479,-0.281983 0.3479,-0.834961 0,-0.53833 -0.314941,-0.787354 -0.314941,-0.252685 -0.915527,-0.252685 l -0.725098,0.0037 v 2.15332 h 0.644531 z"
         inkscape:connector-curvature="0" />
      <path
         id="path4374"
         style="font-style:normal;font-variant:normal;font-weight:normal;font-stretch:normal;line-height:142.99999475%;font-family:Selawik;-inkscape-font-specification:Selawik;fill:#ffffff"
         d="m 51.661154,82.95034 q -0.736084,0 -1.259766,-0.314941 -0.523681,-0.314942 -0.79834,-0.915527 -0.270996,-0.604249 -0.270996,-1.453858 0,-0.864258 0.314942,-1.479492 0.314941,-0.615234 0.915527,-0.933838 0.604248,-0.322266 1.450195,-0.322266 0.563965,0 1.186524,0.161133 l -0.179444,0.585938 q -0.142822,-0.04761 -0.46875,-0.08423 -0.322265,-0.03662 -0.545654,-0.04761 -0.04395,-0.0037 -0.131836,-0.0037 -0.585937,0 -1.003418,0.256347 -0.41748,0.252686 -0.637207,0.725098 -0.219726,0.472412 -0.219726,1.113281 0,0.662842 0.201416,1.138916 0.205078,0.476074 0.593261,0.72876 0.391846,0.252686 0.9375,0.252686 0.322266,0 0.65918,-0.0769 0.336914,-0.0769 0.703125,-0.201416 l 0.205078,0.560303 q -0.344238,0.131836 -0.794678,0.223389 -0.446777,0.08789 -0.856933,0.08789 z"
         inkscape:connector-curvature="0" />
      <path
         id="path4376"
         style="line-height:142.99999475%;letter-spacing:-0.1px;fill:#ffffff"
         d="m 56.832052,79.654442 q 0.377197,-0.435791 0.966797,-0.435791 0.164795,0 0.344238,0.03296 L 58.040548,79.8229 q -0.102539,-0.01099 -0.201416,-0.01099 -0.567627,0 -0.941162,0.351562 v 2.713623 h -0.600586 v -3.566894 h 0.454102 l 0.08057,0.344238 z"
         inkscape:connector-curvature="0" />
      <path
         id="path4378"
         style="line-height:142.99999475%;letter-spacing:-0.1px;fill:#ffffff"
         d="m 61.27673,83.01992 q -0.201416,-0.351562 -0.303955,-0.725097 -0.06226,0.183105 -0.2417,0.336914 -0.179443,0.153808 -0.428467,0.241699 -0.249023,0.08789 -0.505371,0.08789 -0.362548,0 -0.651855,-0.113526 -0.285645,-0.113525 -0.454102,-0.351562 -0.164795,-0.238037 -0.164795,-0.593262 0,-0.344238 0.17212,-0.596924 0.172119,-0.256347 0.48706,-0.391846 0.318604,-0.135498 0.739746,-0.135498 0.505371,0 0.963135,0.26001 v -0.373535 q 0,-0.439453 -0.205078,-0.640869 -0.205078,-0.201416 -0.60791,-0.201416 -0.153809,0 -0.443116,0.02563 -0.285644,0.02197 -0.534667,0.06225 l -0.10254,-0.600585 q 0.446778,-0.05127 0.699463,-0.07324 0.256348,-0.02197 0.428467,-0.02197 0.666504,0 1.010742,0.351562 0.344239,0.351563 0.347901,1.047363 l 0.0073,1.054688 q 0.0037,0.53833 0.318603,1.105957 z m -1.343995,-0.618896 q 0.285645,0 0.501709,-0.09888 0.216065,-0.09888 0.333252,-0.281983 0.12085,-0.183105 0.12085,-0.421142 v -0.03296 q -0.183105,-0.102539 -0.406494,-0.157471 -0.223389,-0.05859 -0.465088,-0.05859 -0.391846,0 -0.626221,0.139161 -0.234375,0.135498 -0.234375,0.377197 0,0.157471 0.09521,0.27832 0.09888,0.12085 0.274658,0.19043 0.175782,0.06592 0.406494,0.06592 z"
         inkscape:connector-curvature="0" />
      <path
         id="path4380"
         style="font-style:normal;font-variant:normal;font-weight:normal;font-stretch:normal;line-height:142.99999475%;font-family:Selawik;-inkscape-font-specification:Selawik;fill:#ffffff"
         d="m 64.21262,79.214989 q 0.46875,0 0.787353,0.183105 0.318604,0.183106 0.476075,0.505371 0.161132,0.322266 0.161132,0.739746 v 2.233887 h -0.600586 v -2.06543 q 0,-0.450439 -0.194091,-0.736084 -0.19043,-0.285644 -0.633545,-0.289306 -0.314942,0.0037 -0.593262,0.117187 -0.274658,0.109864 -0.487061,0.31128 l -0.0073,2.662353 h -0.600586 l 0.0073,-3.566894 h 0.443116 l 0.113525,0.355224 q 0.424805,-0.450439 1.12793,-0.450439 z"
         inkscape:connector-curvature="0" />
      <path
         id="path4382"
         style="line-height:142.99999475%;letter-spacing:-0.49000001px;fill:#ffffff"
         d="m 68.644493,78.19326 q -0.175781,0 -0.292969,-0.117187 -0.117187,-0.117188 -0.117187,-0.292969 0,-0.172119 0.117187,-0.289307 0.117188,-0.117187 0.292969,-0.117187 0.172119,0 0.289307,0.117187 0.117187,0.117188 0.117187,0.289307 0,0.175781 -0.117187,0.292969 -0.117188,0.117187 -0.289307,0.117187 z m -0.311279,1.116944 H 68.9338 v 3.566894 h -0.600586 z"
         inkscape:connector-curvature="0" />
      <path
         id="path4384"
         style="font-style:normal;font-variant:normal;font-weight:normal;font-stretch:normal;line-height:142.99999475%;font-family:Selawik;-inkscape-font-specification:Selawik;fill:#ffffff"
         d="m 71.362503,79.214989 q 0.46875,0 0.787354,0.183105 0.318603,0.183106 0.476074,0.505371 0.161133,0.322266 0.161133,0.739746 v 2.233887 h -0.600586 v -2.06543 q 0,-0.450439 -0.194092,-0.736084 -0.19043,-0.285644 -0.633545,-0.289306 -0.314941,0.0037 -0.593262,0.117187 -0.274658,0.109864 -0.48706,0.31128 l -0.0073,2.662353 h -0.600585 l 0.0073,-3.566894 h 0.443115 l 0.113525,0.355224 q 0.424805,-0.450439 1.12793,-0.450439 z"
         inkscape:connector-curvature="0" />
      <path
         id="path4386"
         style="font-style:normal;font-variant:normal;font-weight:normal;font-stretch:normal;line-height:142.99999475%;font-family:Selawik;-inkscape-font-specification:Selawik;fill:#ffffff"
         d="m 74.680374,79.844872 v 1.926269 q 0,0.161133 0.06958,0.314941 0.07324,0.150147 0.219727,0.249024 0.146484,0.09522 0.355224,0.09522 0.146485,0 0.333252,-0.02564 v 0.53833 q -0.238037,0.02197 -0.483398,0.02197 -0.340576,0 -0.578613,-0.146485 -0.238037,-0.146484 -0.358887,-0.391845 -0.12085,-0.249024 -0.12085,-0.549317 v -2.03247 h -0.644531 v -0.531006 h 0.644531 v -1.281739 h 0.563965 v 1.281739 h 0.981445 v 0.531006 h -0.981445 z"
         inkscape:connector-curvature="0" />
      <path
         id="path4388"
         style="font-style:normal;font-variant:normal;font-weight:normal;font-stretch:normal;line-height:142.99999475%;font-family:Selawik;-inkscape-font-specification:Selawik;fill:#ffffff"
         d="m 78.078812,82.968651 q -0.556641,0 -0.981446,-0.230713 -0.421142,-0.230713 -0.655517,-0.651856 -0.230713,-0.424804 -0.230713,-0.977783 0,-0.560302 0.230713,-0.988769 0.234375,-0.428467 0.655517,-0.662842 0.424805,-0.234375 0.981446,-0.234375 0.545654,0 0.959472,0.234375 0.413819,0.234375 0.637207,0.662842 0.223389,0.424804 0.219727,0.988769 0,0.556641 -0.227051,0.977783 -0.223389,0.421143 -0.637207,0.651856 -0.410156,0.230713 -0.952148,0.230713 z m 0,-0.578613 q 0.344238,0 0.60791,-0.157471 0.267334,-0.161133 0.413818,-0.45044 0.150147,-0.292968 0.157471,-0.673828 -0.0073,-0.388183 -0.157471,-0.684814 -0.150146,-0.296631 -0.413818,-0.457764 -0.263672,-0.164795 -0.60791,-0.164795 -0.366211,0 -0.648194,0.164795 -0.27832,0.164795 -0.432129,0.461426 -0.150146,0.296631 -0.150146,0.688476 0,0.38086 0.150146,0.670166 0.153809,0.289307 0.432129,0.446778 0.278321,0.157471 0.648194,0.157471 z"
         inkscape:connector-curvature="0" />
      <path
         id="path4390"
         style="font-style:normal;font-variant:normal;font-weight:normal;font-stretch:normal;line-height:142.99999475%;font-family:Selawik;-inkscape-font-specification:Selawik;fill:#ffffff"
         d="m 85.392044,83.01992 q -0.201416,-0.351562 -0.303955,-0.725097 -0.06226,0.183105 -0.241699,0.336914 -0.179444,0.153808 -0.428467,0.241699 -0.249023,0.08789 -0.505371,0.08789 -0.362549,0 -0.651856,-0.113526 -0.285644,-0.113525 -0.454101,-0.351562 -0.164795,-0.238037 -0.164795,-0.593262 0,-0.344238 0.172119,-0.596924 0.172119,-0.256347 0.487061,-0.391846 0.318603,-0.135498 0.739746,-0.135498 0.505371,0 0.963134,0.26001 v -0.373535 q 0,-0.439453 -0.205078,-0.640869 -0.205078,-0.201416 -0.60791,-0.201416 -0.153808,0 -0.443115,0.02563 -0.285645,0.02197 -0.534668,0.06225 L 83.11055,79.310204 q 0.446777,-0.05127 0.699463,-0.07324 0.256347,-0.02197 0.428467,-0.02197 0.666504,0 1.010742,0.351562 0.344238,0.351563 0.3479,1.047363 l 0.0073,1.054688 q 0.0037,0.53833 0.318604,1.105957 z M 84.04805,82.401024 q 0.285644,0 0.501709,-0.09888 0.216064,-0.09888 0.333252,-0.281983 0.120849,-0.183105 0.120849,-0.421142 v -0.03296 q -0.183105,-0.102539 -0.406494,-0.157471 -0.223388,-0.05859 -0.465088,-0.05859 -0.391845,0 -0.62622,0.139161 -0.234375,0.135498 -0.234375,0.377197 0,0.157471 0.09522,0.27832 0.09888,0.12085 0.274658,0.19043 0.175781,0.06592 0.406494,0.06592 z"
         inkscape:connector-curvature="0" />
      <path
         id="path4392"
         style="line-height:142.99999475%;letter-spacing:-0.27000001px;fill:#ffffff"
         d="m 90.639847,79.214989 q 0.505371,0 0.864258,0.212402 0.362548,0.20874 0.549316,0.615234 0.19043,0.402832 0.19043,0.970459 0,0.596924 -0.197754,1.036377 -0.197754,0.435791 -0.5896,0.673828 -0.388183,0.238038 -0.948486,0.238038 -0.86792,0 -1.109619,-0.637207 v 2.274169 h -0.604248 v -5.288085 h 0.446777 l 0.142822,0.454101 q 0.245362,-0.263672 0.567627,-0.406494 0.325928,-0.142822 0.688477,-0.142822 z m -0.08789,3.186035 q 0.300293,0 0.534668,-0.146485 0.238037,-0.146484 0.373535,-0.457763 0.13916,-0.314942 0.13916,-0.791016 0,-0.567627 -0.270996,-0.878906 -0.267334,-0.311279 -0.761718,-0.311279 -0.281983,0 -0.585938,0.09888 -0.300293,0.09521 -0.582275,0.270996 v 1.160888 q 0,0.402832 0.190429,0.64087 0.19043,0.234375 0.45044,0.325927 0.263672,0.08789 0.512695,0.08789 z"
         inkscape:connector-curvature="0" />
      <path
         id="path4394"
         style="line-height:142.99999475%;letter-spacing:-0.27000001px;fill:#ffffff"
         d="m 93.467987,79.654442 q 0.377197,-0.435791 0.966797,-0.435791 0.164795,0 0.344238,0.03296 L 94.676483,79.8229 q -0.102539,-0.01099 -0.201416,-0.01099 -0.567627,0 -0.941162,0.351562 v 2.713623 h -0.600586 v -3.566894 h 0.454102 l 0.08057,0.344238 z"
         inkscape:connector-curvature="0" />
      <path
         id="path4396"
         style="font-style:normal;font-variant:normal;font-weight:normal;font-stretch:normal;line-height:142.99999475%;font-family:Selawik;-inkscape-font-specification:Selawik;fill:#ffffff"
         d="m 96.874748,82.968651 q -0.55664,0 -0.981445,-0.230713 -0.421143,-0.230713 -0.655518,-0.651856 -0.230713,-0.424804 -0.230713,-0.977783 0,-0.560302 0.230713,-0.988769 0.234375,-0.428467 0.655518,-0.662842 0.424805,-0.234375 0.981445,-0.234375 0.545655,0 0.959473,0.234375 0.413818,0.234375 0.637207,0.662842 0.223389,0.424804 0.219726,0.988769 0,0.556641 -0.22705,0.977783 -0.223389,0.421143 -0.637207,0.651856 -0.410157,0.230713 -0.952149,0.230713 z m 0,-0.578613 q 0.344239,0 0.60791,-0.157471 0.267334,-0.161133 0.413819,-0.45044 0.150146,-0.292968 0.15747,-0.673828 -0.0073,-0.388183 -0.15747,-0.684814 -0.150147,-0.296631 -0.413819,-0.457764 -0.263671,-0.164795 -0.60791,-0.164795 -0.366211,0 -0.648193,0.164795 -0.27832,0.164795 -0.432129,0.461426 -0.150147,0.296631 -0.150147,0.688476 0,0.38086 0.150147,0.670166 0.153809,0.289307 0.432129,0.446778 0.27832,0.157471 0.648193,0.157471 z"
         inkscape:connector-curvature="0" />
      <path
         id="path4398"
         style="line-height:142.99999475%;letter-spacing:-0.43000001px;fill:#ffffff"
         d="m 101.51098,79.214989 q 0.52368,0 0.88257,0.223388 0.36255,0.219727 0.54199,0.626221 0.17944,0.402832 0.17944,0.948486 0,0.596924 -0.19775,1.036377 -0.19776,0.435791 -0.5896,0.673828 -0.38818,0.238038 -0.94849,0.238038 -0.84961,0 -1.09863,-0.611573 l -0.17212,0.527344 H 99.6726 L 99.6653,77.32534 h 0.60424 v 2.420655 q 0.49439,-0.531006 1.24146,-0.531006 z m -0.0879,3.186035 q 0.30029,0 0.53467,-0.146485 0.23803,-0.146484 0.37353,-0.457763 0.13916,-0.314942 0.13916,-0.791016 0,-0.3479 -0.12085,-0.615234 -0.11719,-0.270996 -0.35156,-0.421143 -0.23438,-0.153808 -0.5603,-0.153808 -0.36621,0 -0.61158,0.0769 -0.24169,0.07324 -0.55664,0.289307 v 0.688476 l 0.004,0.476074 q 0,0.402832 0.18676,0.64087 0.19043,0.234375 0.45044,0.325927 0.26001,0.08789 0.5127,0.08789 z"
         inkscape:connector-curvature="0" />
      <path
         id="path4400"
         style="line-height:142.99999475%;letter-spacing:-0.18000001px;fill:#ffffff"
         d="m 103.64079,77.32534 h 0.60059 v 5.551758 h -0.60059 z"
         inkscape:connector-curvature="0" />
      <path
         id="path4402"
         style="line-height:142.99999475%;letter-spacing:-0.18000001px;fill:#ffffff"
         d="m 106.96543,82.408348 q 0.24536,0 0.52002,-0.05493 0.27466,-0.05493 0.54932,-0.161132 l 0.18676,0.512695 q -0.26001,0.109863 -0.65917,0.183105 -0.39917,0.07324 -0.7251,0.07324 -0.86426,0 -1.34033,-0.461426 -0.47608,-0.465088 -0.47608,-1.428223 0,-0.600586 0.20874,-1.018066 0.2124,-0.421143 0.61157,-0.637207 0.39917,-0.216065 0.95948,-0.216065 0.49438,0 0.82763,0.230713 0.33325,0.227051 0.49439,0.596924 0.16113,0.366211 0.16113,0.787354 0,0.289306 -0.0806,0.578613 l -2.54882,0.01831 q 0.0806,0.494385 0.41015,0.747071 0.32959,0.249023 0.90088,0.249023 z m -0.24536,-2.633057 q -0.52002,0 -0.78369,0.300293 -0.26367,0.300293 -0.30029,0.809327 l 1.9812,-0.01831 q 0.007,-0.08789 0.007,-0.131836 0,-0.249023 -0.0915,-0.465088 -0.0916,-0.219726 -0.29663,-0.355224 -0.20142,-0.139161 -0.51636,-0.139161 z"
         inkscape:connector-curvature="0" />
      <path
         id="path4404"
         style="line-height:142.99999475%;letter-spacing:-0.1px;fill:#ffffff"
         d="m 113.01468,79.214989 q 0.42847,0 0.72143,0.183105 0.29664,0.183106 0.44312,0.505371 0.14648,0.322266 0.15015,0.739746 v 2.233887 h -0.60059 v -2.06543 q -0.007,-0.454101 -0.19043,-0.736084 -0.1831,-0.285644 -0.60059,-0.285644 -0.29663,0 -0.5603,0.106201 -0.26001,0.102539 -0.4541,0.285645 0.0513,0.223388 0.0513,0.461425 v 2.233887 h -0.60059 v -2.06543 q -0.007,-0.454101 -0.19043,-0.736084 -0.1831,-0.285644 -0.60058,-0.285644 -0.27832,0 -0.52735,0.106201 -0.24902,0.102539 -0.44311,0.289307 l -0.007,2.69165 h -0.60059 l 0.007,-3.566894 h 0.44312 l 0.11352,0.351562 q 0.41382,-0.446777 1.09131,-0.446777 0.37354,0 0.64453,0.13916 0.27466,0.13916 0.43579,0.395508 0.53467,-0.534668 1.27442,-0.534668 z"
         inkscape:connector-curvature="0" />
      <path
         id="path4406"
         style="font-style:normal;font-variant:normal;font-weight:normal;font-stretch:normal;line-height:142.99999475%;font-family:Selawik;-inkscape-font-specification:Selawik;fill:#ffffff"
         d="m 118.17713,79.844872 v 1.926269 q 0,0.161133 0.0696,0.314941 0.0732,0.150147 0.21973,0.249024 0.14648,0.09522 0.35522,0.09522 0.14649,0 0.33325,-0.02564 v 0.53833 q -0.23803,0.02197 -0.48339,0.02197 -0.34058,0 -0.57862,-0.146485 -0.23803,-0.146484 -0.35888,-0.391845 -0.12085,-0.249024 -0.12085,-0.549317 v -2.03247 h -0.64453 v -0.531006 h 0.64453 v -1.281739 h 0.56396 v 1.281739 h 0.98145 v 0.531006 h -0.98145 z"
         inkscape:connector-curvature="0" />
      <path
         id="path4408"
         style="line-height:142.99999475%;letter-spacing:-0.14px;fill:#ffffff"
         d="m 121.65614,79.214989 q 0.46875,0 0.78735,0.183105 0.3186,0.183106 0.47607,0.505371 0.16114,0.322266 0.16114,0.739746 v 2.233887 h -0.60059 v -2.06543 q 0,-0.450439 -0.19409,-0.736084 -0.19409,-0.285644 -0.63355,-0.285644 -0.31494,0 -0.59326,0.113525 -0.27832,0.109864 -0.49438,0.307617 v 2.666016 h -0.60059 v -5.55542 h 0.60059 v 2.307129 q 0.42114,-0.413818 1.09131,-0.413818 z"
         inkscape:connector-curvature="0" />
      <path
         id="path4410"
         style="line-height:142.99999475%;letter-spacing:-0.14px;fill:#ffffff"
         d="m 126.55154,83.01992 q -0.20142,-0.351562 -0.30396,-0.725097 -0.0623,0.183105 -0.2417,0.336914 -0.17944,0.153808 -0.42846,0.241699 -0.24903,0.08789 -0.50538,0.08789 -0.36254,0 -0.65185,-0.113526 -0.28565,-0.113525 -0.4541,-0.351562 -0.1648,-0.238037 -0.1648,-0.593262 0,-0.344238 0.17212,-0.596924 0.17212,-0.256347 0.48706,-0.391846 0.31861,-0.135498 0.73975,-0.135498 0.50537,0 0.96313,0.26001 v -0.373535 q 0,-0.439453 -0.20508,-0.640869 -0.20507,-0.201416 -0.60791,-0.201416 -0.1538,0 -0.44311,0.02563 -0.28565,0.02197 -0.53467,0.06225 l -0.10254,-0.600585 q 0.44678,-0.05127 0.69947,-0.07324 0.25634,-0.02197 0.42846,-0.02197 0.66651,0 1.01074,0.351562 0.34424,0.351563 0.3479,1.047363 l 0.007,1.054688 q 0.004,0.53833 0.3186,1.105957 l -0.531,0.245361 z m -1.344,-0.618896 q 0.28565,0 0.50171,-0.09888 0.21607,-0.09888 0.33325,-0.281983 0.12085,-0.183105 0.12085,-0.421142 v -0.03296 q -0.1831,-0.102539 -0.40649,-0.157471 -0.22339,-0.05859 -0.46509,-0.05859 -0.39184,0 -0.62622,0.139161 -0.23437,0.135498 -0.23437,0.377197 0,0.157471 0.0952,0.27832 0.0989,0.12085 0.27466,0.19043 0.17578,0.06592 0.40649,0.06592 z"
         inkscape:connector-curvature="0" />
      <path
         id="path4412"
         style="font-style:normal;font-variant:normal;font-weight:normal;font-stretch:normal;line-height:142.99999475%;font-family:Selawik;-inkscape-font-specification:Selawik;fill:#ffffff"
         d="m 128.51725,79.844872 v 1.926269 q 0,0.161133 0.0696,0.314941 0.0732,0.150147 0.21973,0.249024 0.14648,0.09522 0.35522,0.09522 0.14649,0 0.33325,-0.02564 v 0.53833 q -0.23803,0.02197 -0.4834,0.02197 -0.34057,0 -0.57861,-0.146485 -0.23804,-0.146484 -0.35889,-0.391845 -0.12084,-0.249024 -0.12084,-0.549317 v -2.03247 h -0.64454 v -0.531006 h 0.64454 v -1.281739 h 0.56396 v 1.281739 h 0.98145 v 0.531006 h -0.98145 z"
         inkscape:connector-curvature="0" />
      <path
         id="path4414"
         style="font-style:normal;font-variant:normal;font-weight:normal;font-stretch:normal;line-height:142.99999475%;font-family:Selawik;-inkscape-font-specification:Selawik;fill:#ffffff"
         d="m 132.67008,78.19326 q -0.17578,0 -0.29297,-0.117187 -0.11718,-0.117188 -0.11718,-0.292969 0,-0.172119 0.11718,-0.289307 0.11719,-0.117187 0.29297,-0.117187 0.17212,0 0.28931,0.117187 0.11719,0.117188 0.11719,0.289307 0,0.175781 -0.11719,0.292969 -0.11719,0.117187 -0.28931,0.117187 z m -0.31128,1.116944 h 0.60059 v 3.566894 h -0.60059 z"
         inkscape:connector-curvature="0" />
      <path
         id="path4416"
         style="font-style:normal;font-variant:normal;font-weight:normal;font-stretch:normal;line-height:142.99999475%;font-family:Selawik;-inkscape-font-specification:Selawik;fill:#ffffff"
         d="m 134.94791,79.844872 v 1.926269 q 0,0.161133 0.0696,0.314941 0.0733,0.150147 0.21973,0.249024 0.14649,0.09522 0.35523,0.09522 0.14648,0 0.33325,-0.02564 v 0.53833 q -0.23804,0.02197 -0.4834,0.02197 -0.34058,0 -0.57861,-0.146485 -0.23804,-0.146484 -0.35889,-0.391845 -0.12085,-0.249024 -0.12085,-0.549317 v -2.03247 h -0.64453 v -0.531006 h 0.64453 v -1.281739 h 0.56396 v 1.281739 h 0.98145 v 0.531006 h -0.98145 z"
         inkscape:connector-curvature="0" />
      <path
         id="path4418"
         style="line-height:142.99999475%;letter-spacing:-0.25999999px;fill:#ffffff"
         d="m 140.03825,82.961327 q -0.55297,0 -0.95214,-0.223389 -0.39917,-0.223389 -0.60791,-0.640869 -0.20875,-0.421143 -0.20875,-0.996094 0,-0.571289 0.21241,-0.996094 0.2124,-0.424804 0.62256,-0.655517 0.41015,-0.230713 0.9851,-0.227051 0.3003,-0.0037 0.5896,0.05493 0.28931,0.05493 0.49073,0.150146 l -0.14649,0.60791 q -0.44678,-0.201416 -0.93017,-0.201416 -0.61158,0 -0.88624,0.314942 -0.27465,0.311279 -0.27465,0.933837 0,0.651856 0.31128,0.970459 0.31494,0.318604 0.91552,0.318604 0.24536,0 0.43579,-0.04761 0.1941,-0.05127 0.50904,-0.168457 l 0.18677,0.55664 q -0.30762,0.117188 -0.63355,0.183106 -0.32593,0.06592 -0.6189,0.06592 z"
         inkscape:connector-curvature="0" />
      <path
         id="path4420"
         style="line-height:142.99999475%;letter-spacing:-0.19px;fill:#ffffff"
         d="m 143.34881,82.968651 q -0.55664,0 -0.98145,-0.230713 -0.42114,-0.230713 -0.65551,-0.651856 -0.23072,-0.424804 -0.23072,-0.977783 0,-0.560302 0.23072,-0.988769 0.23437,-0.428467 0.65551,-0.662842 0.42481,-0.234375 0.98145,-0.234375 0.54565,0 0.95947,0.234375 0.41382,0.234375 0.63721,0.662842 0.22339,0.424804 0.21972,0.988769 0,0.556641 -0.22705,0.977783 -0.22338,0.421143 -0.6372,0.651856 -0.41016,0.230713 -0.95215,0.230713 z m 0,-0.578613 q 0.34424,0 0.60791,-0.157471 0.26733,-0.161133 0.41382,-0.45044 0.15014,-0.292968 0.15747,-0.673828 -0.007,-0.388183 -0.15747,-0.684814 -0.15015,-0.296631 -0.41382,-0.457764 -0.26367,-0.164795 -0.60791,-0.164795 -0.36621,0 -0.6482,0.164795 -0.27832,0.164795 -0.43212,0.461426 -0.15015,0.296631 -0.15015,0.688476 0,0.38086 0.15015,0.670166 0.1538,0.289307 0.43212,0.446778 0.27833,0.157471 0.6482,0.157471 z"
         inkscape:connector-curvature="0" />
      <path
         id="path4422"
         style="line-height:142.99999475%;letter-spacing:-0.19px;fill:#ffffff"
         d="m 148.7655,83.01992 q -0.2124,-0.380859 -0.30029,-0.717773 -0.0549,0.150146 -0.2124,0.300293 -0.15381,0.150146 -0.40283,0.252685 -0.24537,0.102539 -0.56031,0.102539 -0.51635,0 -0.83496,-0.201416 -0.3186,-0.201416 -0.4541,-0.520019 -0.1355,-0.322266 -0.1355,-0.706787 v -2.215576 h 0.60059 v 2.028808 q 0,0.479737 0.19775,0.769043 0.20142,0.289307 0.75806,0.289307 0.41382,0 0.68481,-0.194092 0.271,-0.197754 0.271,-0.655518 v -2.24121 h 0.60059 v 2.358398 q 0.004,0.53833 0.3186,1.105957 z"
         inkscape:connector-curvature="0" />
      <path
         id="path4424"
         style="line-height:142.99999475%;letter-spacing:-0.09px;fill:#ffffff"
         d="m 150.00372,77.32534 h 0.60059 v 5.551758 h -0.60059 z"
         inkscape:connector-curvature="0" />
      <path
         id="path4426"
         style="line-height:142.99999475%;letter-spacing:-0.09px;fill:#ffffff"
         d="m 154.71841,83.01992 q -0.20874,-0.377197 -0.30762,-0.739746 -0.15747,0.336914 -0.49072,0.509033 -0.32959,0.17212 -0.8313,0.17212 -0.47974,0 -0.84229,-0.223389 -0.36255,-0.227051 -0.56396,-0.637207 -0.19776,-0.410156 -0.19776,-0.952149 0,-0.574951 0.22339,-1.010742 0.22339,-0.439453 0.62989,-0.681152 0.41015,-0.241699 0.94848,-0.241699 0.55298,0 1.0437,0.380859 v -2.27417 h 0.60059 v 4.346924 q 0.004,0.53833 0.3186,1.105957 z m -1.48316,-0.633545 q 0.53467,0 0.81299,-0.303955 0.28198,-0.307617 0.28198,-0.864257 V 80.11953 q -0.22705,-0.197754 -0.49072,-0.278321 -0.26367,-0.08057 -0.50537,-0.08057 -0.36987,0 -0.64087,0.164795 -0.271,0.161133 -0.41748,0.465088 -0.14648,0.300293 -0.14648,0.717773 0,0.314942 0.11718,0.60791 0.11719,0.292969 0.36621,0.483399 0.24903,0.186767 0.62256,0.186767 z"
         inkscape:connector-curvature="0" />
      <path
         id="path4428"
         style="line-height:142.99999475%;letter-spacing:-0.19px;fill:#ffffff"
         d="m 157.75219,79.214989 q 0.46875,0 0.78735,0.183105 0.31861,0.183106 0.47608,0.505371 0.16113,0.322266 0.16113,0.739746 v 2.233887 h -0.60059 v -2.06543 q 0,-0.450439 -0.19409,-0.736084 -0.19043,-0.285644 -0.63354,-0.289306 -0.31494,0.0037 -0.59326,0.117187 -0.27466,0.109864 -0.48706,0.31128 l -0.007,2.662353 h -0.60058 l 0.007,-3.566894 h 0.44311 l 0.11353,0.355224 q 0.4248,-0.450439 1.12793,-0.450439 z"
         inkscape:connector-curvature="0" />
      <path
         id="path4430"
         style="line-height:142.99999475%;letter-spacing:-0.19px;fill:#ffffff"
         d="m 160.11102,77.497459 h 0.53101 v 1.71753 h -0.53101 z"
         inkscape:connector-curvature="0" />
      <path
         id="path4432"
         style="font-style:normal;font-variant:normal;font-weight:normal;font-stretch:normal;line-height:142.99999475%;font-family:Selawik;-inkscape-font-specification:Selawik;fill:#ffffff"
         d="m 162.41858,79.844872 v 1.926269 q 0,0.161133 0.0696,0.314941 0.0732,0.150147 0.21973,0.249024 0.14648,0.09522 0.35522,0.09522 0.14648,0 0.33325,-0.02564 v 0.53833 q -0.23803,0.02197 -0.4834,0.02197 -0.34057,0 -0.57861,-0.146485 -0.23804,-0.146484 -0.35889,-0.391845 -0.12085,-0.249024 -0.12085,-0.549317 v -2.03247 h -0.64453 v -0.531006 h 0.64453 v -1.281739 h 0.56397 v 1.281739 h 0.98144 v 0.531006 h -0.98144 z"
         inkscape:connector-curvature="0" />
      <path
         id="path4434"
         style="font-style:normal;font-variant:normal;font-weight:normal;font-stretch:normal;line-height:142.99999475%;font-family:Selawik;-inkscape-font-specification:Selawik;fill:#ffffff"
         d="m 30.251877,89.939988 q 0.46875,0 0.787353,0.183106 0.318604,0.183105 0.476075,0.505371 0.161132,0.322266 0.161132,0.739746 v 2.233887 h -0.600586 v -2.06543 q 0,-0.450439 -0.194091,-0.736084 -0.194092,-0.285645 -0.633545,-0.285645 -0.314942,0 -0.593262,0.113526 -0.27832,0.109863 -0.494385,0.307617 v 2.666016 h -0.600586 v -5.55542 h 0.600586 v 2.307129 q 0.421143,-0.413819 1.091309,-0.413819 z"
         inkscape:connector-curvature="0" />
      <path
         id="path4436"
         style="font-style:normal;font-variant:normal;font-weight:normal;font-stretch:normal;line-height:142.99999475%;font-family:Selawik;-inkscape-font-specification:Selawik;fill:#ffffff"
         d="m 35.287277,93.74492 q -0.201416,-0.351563 -0.303955,-0.725098 -0.06226,0.183106 -0.241699,0.336914 -0.179443,0.153809 -0.428467,0.2417 -0.249023,0.08789 -0.505371,0.08789 -0.362549,0 -0.651855,-0.113525 -0.285645,-0.113526 -0.454102,-0.351563 -0.164795,-0.238037 -0.164795,-0.593261 0,-0.344239 0.172119,-0.596924 0.172119,-0.256348 0.487061,-0.391846 0.318603,-0.135498 0.739746,-0.135498 0.505371,0 0.963135,0.26001 v -0.373535 q 0,-0.439453 -0.205078,-0.64087 -0.205079,-0.201416 -0.607911,-0.201416 -0.153808,0 -0.443115,0.02563 -0.285644,0.02197 -0.534668,0.06226 l -0.102539,-0.600586 q 0.446777,-0.05127 0.699463,-0.07324 0.256348,-0.02197 0.428467,-0.02197 0.666504,0 1.010742,0.351563 0.344238,0.351562 0.3479,1.047363 l 0.0073,1.054688 q 0.0037,0.53833 0.318603,1.105957 l -0.531006,0.245361 z m -1.343994,-0.618897 q 0.285645,0 0.501709,-0.09888 0.216065,-0.09888 0.333252,-0.281983 0.12085,-0.183105 0.12085,-0.421142 v -0.03296 q -0.183106,-0.10254 -0.406495,-0.157471 -0.223388,-0.05859 -0.465087,-0.05859 -0.391846,0 -0.626221,0.13916 -0.234375,0.135498 -0.234375,0.377198 0,0.15747 0.09521,0.27832 0.09888,0.120849 0.274658,0.19043 0.175781,0.06592 0.406494,0.06592 z"
         inkscape:connector-curvature="0" />
      <path
         id="path4438"
         style="letter-spacing:-0.52999997px;fill:#ffffff"
         d="m 38.323166,89.939988 q 0.46875,0 0.787353,0.183106 0.318604,0.183105 0.476075,0.505371 0.161132,0.322266 0.161132,0.739746 v 2.233887 h -0.600585 v -2.06543 q 0,-0.450439 -0.194092,-0.736084 -0.19043,-0.285645 -0.633545,-0.289307 -0.314942,0.0037 -0.593262,0.117188 -0.274658,0.109863 -0.48706,0.311279 l -0.0073,2.662354 h -0.600586 l 0.0073,-3.566895 h 0.443115 l 0.113525,0.355225 q 0.424805,-0.45044 1.12793,-0.45044 z"
         inkscape:connector-curvature="0" />
      <path
         id="path4440"
         style="letter-spacing:-0.1px;fill:#ffffff"
         d="m 43.341262,93.74492 q -0.20874,-0.377197 -0.307617,-0.739746 -0.157471,0.336914 -0.490723,0.509033 -0.32959,0.172119 -0.831299,0.172119 -0.479736,0 -0.842285,-0.223388 -0.362549,-0.227051 -0.563965,-0.637207 -0.197754,-0.410157 -0.197754,-0.952149 0,-0.574951 0.223389,-1.010742 0.223389,-0.439453 0.629883,-0.681152 0.410156,-0.2417 0.948486,-0.2417 0.552979,0 1.043701,0.38086 v -2.27417 h 0.600586 v 4.346924 q 0.0037,0.53833 0.318604,1.105957 z m -1.483154,-0.633545 q 0.534668,0 0.812988,-0.303955 0.281982,-0.307617 0.281982,-0.864258 v -1.098633 q -0.227051,-0.197754 -0.490722,-0.27832 -0.263672,-0.08057 -0.505371,-0.08057 -0.369874,0 -0.64087,0.164795 -0.270996,0.161132 -0.41748,0.465087 -0.146484,0.300293 -0.146484,0.717774 0,0.314941 0.117187,0.60791 0.117188,0.292969 0.366211,0.483398 0.249023,0.186768 0.622559,0.186768 z"
         inkscape:connector-curvature="0" />
      <path
         id="path4442"
         style="letter-spacing:-0.1px;fill:#ffffff"
         d="m 44.676809,88.05034 h 0.600586 v 5.551758 h -0.600586 z"
         inkscape:connector-curvature="0" />
      <path
         id="path4444"
         style="font-style:normal;font-variant:normal;font-weight:normal;font-stretch:normal;line-height:142.99999475%;font-family:Selawik;-inkscape-font-specification:Selawik;fill:#ffffff"
         d="m 48.081448,93.133348 q 0.245361,0 0.520019,-0.05493 0.274658,-0.05493 0.549317,-0.161133 l 0.186767,0.512696 q -0.26001,0.109863 -0.65918,0.183105 -0.399169,0.07324 -0.725097,0.07324 -0.864258,0 -1.340332,-0.461426 -0.476074,-0.465087 -0.476074,-1.428222 0,-0.600586 0.20874,-1.018067 0.212402,-0.421142 0.611572,-0.637207 0.39917,-0.216064 0.959473,-0.216064 0.494384,0 0.827636,0.230713 0.333252,0.227051 0.494385,0.596924 0.161133,0.366211 0.161133,0.787353 0,0.289307 -0.08057,0.578613 l -2.548829,0.01831 q 0.08057,0.494385 0.410157,0.74707 0.32959,0.249024 0.900879,0.249024 z m -0.245362,-2.633057 q -0.520019,0 -0.783691,0.300293 -0.263672,0.300293 -0.300293,0.809326 l 1.981201,-0.01831 q 0.0073,-0.08789 0.0073,-0.131836 0,-0.249024 -0.09155,-0.465088 -0.09155,-0.219727 -0.296631,-0.355225 -0.201416,-0.13916 -0.516358,-0.13916 z"
         inkscape:connector-curvature="0" />
      <path
         id="path4446"
         style="font-style:normal;font-variant:normal;font-weight:normal;font-stretch:normal;line-height:142.99999475%;font-family:Selawik;-inkscape-font-specification:Selawik;fill:#ffffff"
         d="m 49.83926,94.312547 q 0.245361,-0.457764 0.336914,-0.780029 0.09155,-0.322266 0.09155,-0.765381 h 0.65918 q 0,0.454101 -0.161133,0.944824 -0.157471,0.494385 -0.424805,0.856934 z"
         inkscape:connector-curvature="0" />
      <path
         id="path4448"
         style="font-style:normal;font-variant:normal;font-weight:normal;font-stretch:normal;line-height:142.99999475%;font-family:Selawik;-inkscape-font-specification:Selawik;fill:#ffffff"
         d="m 56.456692,93.74492 q -0.201416,-0.351563 -0.303955,-0.725098 -0.06226,0.183106 -0.2417,0.336914 -0.179443,0.153809 -0.428466,0.2417 -0.249024,0.08789 -0.505371,0.08789 -0.362549,0 -0.651856,-0.113525 -0.285644,-0.113526 -0.454101,-0.351563 -0.164795,-0.238037 -0.164795,-0.593261 0,-0.344239 0.172119,-0.596924 0.172119,-0.256348 0.48706,-0.391846 0.318604,-0.135498 0.739746,-0.135498 0.505371,0 0.963135,0.26001 v -0.373535 q 0,-0.439453 -0.205078,-0.64087 -0.205078,-0.201416 -0.60791,-0.201416 -0.153809,0 -0.443115,0.02563 -0.285645,0.02197 -0.534668,0.06226 l -0.102539,-0.600586 q 0.446777,-0.05127 0.699462,-0.07324 0.256348,-0.02197 0.428467,-0.02197 0.666504,0 1.010742,0.351563 0.344239,0.351562 0.347901,1.047363 l 0.0073,1.054688 q 0.0037,0.53833 0.318604,1.105957 l -0.531006,0.245361 z m -1.343994,-0.618897 q 0.285644,0 0.501709,-0.09888 0.216064,-0.09888 0.333252,-0.281983 0.120849,-0.183105 0.120849,-0.421142 v -0.03296 q -0.183105,-0.10254 -0.406494,-0.157471 -0.223389,-0.05859 -0.465088,-0.05859 -0.391846,0 -0.626221,0.13916 -0.234375,0.135498 -0.234375,0.377198 0,0.15747 0.09522,0.27832 0.09888,0.120849 0.274658,0.19043 0.175782,0.06592 0.406495,0.06592 z"
         inkscape:connector-curvature="0" />
      <path
         id="path4450"
         style="letter-spacing:-0.23px;fill:#ffffff"
         d="m 59.49258,89.939988 q 0.46875,0 0.787354,0.183106 0.318603,0.183105 0.476074,0.505371 0.161133,0.322266 0.161133,0.739746 v 2.233887 h -0.600586 v -2.06543 q 0,-0.450439 -0.194092,-0.736084 -0.190429,-0.285645 -0.633545,-0.289307 -0.314941,0.0037 -0.593261,0.117188 -0.274659,0.109863 -0.487061,0.311279 l -0.0073,2.662354 H 57.80071 l 0.0073,-3.566895 h 0.443115 l 0.113526,0.355225 q 0.424804,-0.45044 1.127929,-0.45044 z"
         inkscape:connector-curvature="0" />
      <path
         id="path4452"
         style="letter-spacing:-0.23px;fill:#ffffff"
         d="m 64.810677,93.74492 q -0.208741,-0.377197 -0.307618,-0.739746 -0.15747,0.336914 -0.490722,0.509033 -0.32959,0.172119 -0.831299,0.172119 -0.479736,0 -0.842285,-0.223388 -0.362549,-0.227051 -0.563965,-0.637207 -0.197754,-0.410157 -0.197754,-0.952149 0,-0.574951 0.223389,-1.010742 0.223388,-0.439453 0.629882,-0.681152 0.410157,-0.2417 0.948487,-0.2417 0.552978,0 1.043701,0.38086 v -2.27417 h 0.600586 v 4.346924 q 0.0037,0.53833 0.318603,1.105957 z m -1.483155,-0.633545 q 0.534668,0 0.812989,-0.303955 0.281982,-0.307617 0.281982,-0.864258 v -1.098633 q -0.227051,-0.197754 -0.490723,-0.27832 -0.263672,-0.08057 -0.505371,-0.08057 -0.369873,0 -0.640869,0.164795 -0.270996,0.161132 -0.41748,0.465087 -0.146485,0.300293 -0.146485,0.717774 0,0.314941 0.117188,0.60791 0.117187,0.292969 0.366211,0.483398 0.249023,0.186768 0.622558,0.186768 z"
         inkscape:connector-curvature="0" />
      <path
         id="path4454"
         style="letter-spacing:-0.25px;fill:#ffffff"
         d="m 69.505238,89.939988 q 0.46875,0 0.787353,0.183106 0.318604,0.183105 0.476074,0.505371 0.161133,0.322266 0.161133,0.739746 v 2.233887 h -0.600586 v -2.06543 q 0,-0.450439 -0.194092,-0.736084 -0.190429,-0.285645 -0.633545,-0.289307 -0.314941,0.0037 -0.593261,0.117188 -0.274658,0.109863 -0.487061,0.311279 l -0.0073,2.662354 h -0.600586 l 0.0073,-3.566895 h 0.443116 l 0.113525,0.355225 q 0.424805,-0.45044 1.12793,-0.45044 z"
         inkscape:connector-curvature="0" />
      <path
         id="path4456"
         style="letter-spacing:-0.25px;fill:#ffffff"
         d="m 73.422718,93.69365 q -0.556641,0 -0.981445,-0.230712 -0.421143,-0.230713 -0.655518,-0.651856 -0.230713,-0.424805 -0.230713,-0.977783 0,-0.560303 0.230713,-0.98877 0.234375,-0.428466 0.655518,-0.662841 0.424804,-0.234375 0.981445,-0.234375 0.545654,0 0.959473,0.234375 0.413818,0.234375 0.637207,0.662841 0.223388,0.424805 0.219726,0.98877 0,0.55664 -0.22705,0.977783 -0.223389,0.421143 -0.637208,0.651856 -0.410156,0.230712 -0.952148,0.230712 z m 0,-0.578613 q 0.344238,0 0.60791,-0.157471 0.267334,-0.161132 0.413819,-0.450439 0.150146,-0.292969 0.15747,-0.673828 -0.0073,-0.388184 -0.15747,-0.684815 -0.150147,-0.29663 -0.413819,-0.457763 -0.263672,-0.164795 -0.60791,-0.164795 -0.366211,0 -0.648193,0.164795 -0.278321,0.164795 -0.432129,0.461426 -0.150147,0.29663 -0.150147,0.688476 0,0.380859 0.150147,0.670166 0.153808,0.289307 0.432129,0.446777 0.27832,0.157471 0.648193,0.157471 z"
         inkscape:connector-curvature="0" />
      <path
         id="path4458"
         style="letter-spacing:-0.25px;fill:#ffffff"
         d="m 75.439564,90.035203 h 0.611572 l 0.776367,2.548828 q 0.01465,0.05859 0.0293,0.168457 0.01465,0.109864 0.01831,0.161133 h 0.0293 q 0.0037,-0.04395 0.02563,-0.172119 0.02563,-0.131836 0.04028,-0.175781 l 0.84961,-2.53418 h 0.549316 l 0.791016,2.548828 q 0.01099,0.03296 0.0293,0.161133 0.02197,0.124512 0.02563,0.175781 h 0.0293 q 0.0037,-0.03662 0.02563,-0.146484 0.02197,-0.113526 0.04028,-0.183106 l 0.761719,-2.55249 h 0.615234 l -1.124267,3.585205 H 78.940532 L 78.164165,91.21074 q -0.02197,-0.0769 -0.04761,-0.190429 -0.02197,-0.117188 -0.02564,-0.150147 h -0.01465 q -0.0037,0.03296 -0.03296,0.150147 -0.02563,0.113525 -0.04761,0.186767 l -0.820312,2.41333 h -0.600586 l -1.135254,-3.585205 z"
         inkscape:connector-curvature="0" />
      <path
         id="path4460"
         style="font-style:normal;font-variant:normal;font-weight:normal;font-stretch:normal;line-height:142.99999475%;font-family:Selawik;-inkscape-font-specification:Selawik;fill:#ffffff"
         d="m 83.491566,88.91826 q -0.175782,0 -0.292969,-0.117188 -0.117188,-0.117187 -0.117188,-0.292968 0,-0.17212 0.117188,-0.289307 0.117187,-0.117188 0.292969,-0.117188 0.172119,0 0.289306,0.117188 0.117188,0.117187 0.117188,0.289307 0,0.175781 -0.117188,0.292968 -0.117187,0.117188 -0.289306,0.117188 z m -0.31128,1.116943 h 0.600586 v 3.566895 h -0.600586 z"
         inkscape:connector-curvature="0" />
      <path
         id="path4462"
         style="font-style:normal;font-variant:normal;font-weight:normal;font-stretch:normal;line-height:142.99999475%;font-family:Selawik;-inkscape-font-specification:Selawik;fill:#ffffff"
         d="m 85.769398,90.569871 v 1.92627 q 0,0.161132 0.06958,0.314941 0.07324,0.150147 0.219726,0.249024 0.146485,0.09521 0.355225,0.09521 0.146484,0 0.333252,-0.02563 v 0.53833 q -0.238037,0.02197 -0.483398,0.02197 -0.340577,0 -0.578614,-0.146484 -0.238037,-0.146484 -0.358886,-0.391846 -0.12085,-0.249023 -0.12085,-0.549316 v -2.032471 h -0.644531 v -0.531006 h 0.644531 v -1.281738 h 0.563965 v 1.281738 h 0.981445 v 0.531006 h -0.981445 z"
         inkscape:connector-curvature="0" />
      <path
         id="path4464"
         style="font-style:normal;font-variant:normal;font-weight:normal;font-stretch:normal;line-height:142.99999475%;font-family:Selawik;-inkscape-font-specification:Selawik;fill:#ffffff"
         d="m 91.299183,89.939988 q 0.46875,0 0.787353,0.183106 0.318604,0.183105 0.476075,0.505371 0.161132,0.322266 0.161132,0.739746 v 2.233887 h -0.600585 v -2.06543 q 0,-0.450439 -0.194092,-0.736084 -0.19043,-0.285645 -0.633545,-0.289307 -0.314942,0.0037 -0.593262,0.117188 -0.274658,0.109863 -0.48706,0.311279 l -0.0073,2.662354 h -0.600586 l 0.0073,-3.566895 h 0.443115 l 0.113525,0.355225 q 0.424805,-0.45044 1.12793,-0.45044 z"
         inkscape:connector-curvature="0" />
      <path
         id="path4466"
         style="font-style:normal;font-variant:normal;font-weight:normal;font-stretch:normal;line-height:142.99999475%;font-family:Selawik;-inkscape-font-specification:Selawik;fill:#ffffff"
         d="m 95.547226,93.133348 q 0.245361,0 0.520019,-0.05493 0.274659,-0.05493 0.549317,-0.161133 l 0.186767,0.512696 q -0.260009,0.109863 -0.659179,0.183105 -0.39917,0.07324 -0.725098,0.07324 -0.864258,0 -1.340332,-0.461426 -0.476074,-0.465087 -0.476074,-1.428222 0,-0.600586 0.20874,-1.018067 0.212402,-0.421142 0.611572,-0.637207 0.39917,-0.216064 0.959473,-0.216064 0.494385,0 0.827637,0.230713 0.333252,0.227051 0.494385,0.596924 0.161132,0.366211 0.161132,0.787353 0,0.289307 -0.08057,0.578613 l -2.548828,0.01831 q 0.08057,0.494385 0.410156,0.74707 0.32959,0.249024 0.900879,0.249024 z m -0.245361,-2.633057 q -0.52002,0 -0.783692,0.300293 -0.263672,0.300293 -0.300293,0.809326 l 1.981201,-0.01831 q 0.0073,-0.08789 0.0073,-0.131836 0,-0.249024 -0.09155,-0.465088 -0.09155,-0.219727 -0.296631,-0.355225 -0.201416,-0.13916 -0.516357,-0.13916 z"
         inkscape:connector-curvature="0" />
      <path
         id="path4468"
         style="font-style:normal;font-variant:normal;font-weight:normal;font-stretch:normal;line-height:142.99999475%;font-family:Selawik;-inkscape-font-specification:Selawik;fill:#ffffff"
         d="m 99.458359,93.133348 q 0.245361,0 0.520019,-0.05493 0.274662,-0.05493 0.549312,-0.161133 l 0.18677,0.512696 q -0.26001,0.109863 -0.65918,0.183105 -0.399167,0.07324 -0.725095,0.07324 -0.864258,0 -1.340332,-0.461426 -0.476074,-0.465087 -0.476074,-1.428222 0,-0.600586 0.20874,-1.018067 0.212402,-0.421142 0.611572,-0.637207 0.39917,-0.216064 0.959473,-0.216064 0.494385,0 0.827636,0.230713 0.33325,0.227051 0.49439,0.596924 0.16113,0.366211 0.16113,0.787353 0,0.289307 -0.0806,0.578613 l -2.548826,0.01831 q 0.08057,0.494385 0.410156,0.74707 0.32959,0.249024 0.900879,0.249024 z m -0.245362,-2.633057 q -0.520019,0 -0.783691,0.300293 -0.263672,0.300293 -0.300293,0.809326 l 1.981197,-0.01831 q 0.007,-0.08789 0.007,-0.131836 0,-0.249024 -0.0916,-0.465088 -0.09156,-0.219727 -0.296635,-0.355225 -0.201416,-0.13916 -0.516358,-0.13916 z"
         inkscape:connector-curvature="0" />
      <path
         id="path4470"
         style="letter-spacing:-0.25px;fill:#ffffff"
         d="m 104.66954,93.74492 q -0.20874,-0.377197 -0.30762,-0.739746 -0.15747,0.336914 -0.49072,0.509033 -0.32959,0.172119 -0.8313,0.172119 -0.47973,0 -0.84228,-0.223388 -0.36255,-0.227051 -0.56397,-0.637207 -0.19775,-0.410157 -0.19775,-0.952149 0,-0.574951 0.22339,-1.010742 0.22339,-0.439453 0.62988,-0.681152 0.41016,-0.2417 0.94849,-0.2417 0.55297,0 1.0437,0.38086 v -2.27417 h 0.60058 v 4.346924 q 0.004,0.53833 0.31861,1.105957 z m -1.48315,-0.633545 q 0.53466,0 0.81298,-0.303955 0.28199,-0.307617 0.28199,-0.864258 v -1.098633 q -0.22705,-0.197754 -0.49073,-0.27832 -0.26367,-0.08057 -0.50537,-0.08057 -0.36987,0 -0.64087,0.164795 -0.27099,0.161132 -0.41748,0.465087 -0.14648,0.300293 -0.14648,0.717774 0,0.314941 0.11719,0.60791 0.11718,0.292969 0.36621,0.483398 0.24902,0.186768 0.62256,0.186768 z"
         inkscape:connector-curvature="0" />
      <path
         id="path4472"
         style="letter-spacing:-0.25px;fill:#ffffff"
         d="m 106.76695,93.69365 q -0.57861,-0.0037 -1.20483,-0.285644 l 0.19775,-0.53833 q 0.5896,0.263672 1.00708,0.270996 0.76172,-0.01099 0.76538,-0.501709 0,-0.172119 -0.0989,-0.281982 -0.0952,-0.109864 -0.2417,-0.175782 -0.14283,-0.06592 -0.39551,-0.146484 -0.33325,-0.106201 -0.54199,-0.20874 -0.20874,-0.106202 -0.35889,-0.314942 -0.14648,-0.20874 -0.14648,-0.552978 0.011,-1.025391 1.24878,-1.025391 0.56762,0 0.98876,0.194092 l -0.20874,0.545654 q -0.42114,-0.186767 -0.78002,-0.186767 -0.65552,0.0073 -0.68116,0.472412 0,0.13916 0.0879,0.230713 0.0879,0.09155 0.21607,0.150146 0.13183,0.05493 0.36621,0.131836 0.3479,0.109863 0.56763,0.223389 0.22338,0.109863 0.38452,0.340576 0.16113,0.227051 0.16113,0.604248 0,1.054687 -1.33301,1.054687 z"
         inkscape:connector-curvature="0" />
      <path
         id="path4474"
         style="font-style:normal;font-variant:normal;font-weight:normal;font-stretch:normal;line-height:142.99999475%;font-family:Selawik;-inkscape-font-specification:Selawik;fill:#ffffff"
         d="m 111.59264,90.569871 v 1.92627 q 0,0.161132 0.0696,0.314941 0.0732,0.150147 0.21972,0.249024 0.14649,0.09521 0.35523,0.09521 0.14648,0 0.33325,-0.02563 v 0.53833 q -0.23804,0.02197 -0.4834,0.02197 -0.34058,0 -0.57861,-0.146484 -0.23804,-0.146484 -0.35889,-0.391846 -0.12085,-0.249023 -0.12085,-0.549316 v -2.032471 h -0.64453 v -0.531006 h 0.64453 v -1.281738 h 0.56397 v 1.281738 h 0.98144 v 0.531006 h -0.98144 z"
         inkscape:connector-curvature="0" />
      <path
         id="path4476"
         style="font-style:normal;font-variant:normal;font-weight:normal;font-stretch:normal;line-height:142.99999475%;font-family:Selawik;-inkscape-font-specification:Selawik;fill:#ffffff"
         d="m 114.99107,93.69365 q -0.55664,0 -0.98144,-0.230712 -0.42114,-0.230713 -0.65552,-0.651856 -0.23071,-0.424805 -0.23071,-0.977783 0,-0.560303 0.23071,-0.98877 0.23438,-0.428466 0.65552,-0.662841 0.4248,-0.234375 0.98144,-0.234375 0.54566,0 0.95948,0.234375 0.41381,0.234375 0.6372,0.662841 0.22339,0.424805 0.21973,0.98877 0,0.55664 -0.22705,0.977783 -0.22339,0.421143 -0.63721,0.651856 -0.41015,0.230712 -0.95215,0.230712 z m 0,-0.578613 q 0.34424,0 0.60791,-0.157471 0.26734,-0.161132 0.41382,-0.450439 0.15015,-0.292969 0.15747,-0.673828 -0.007,-0.388184 -0.15747,-0.684815 -0.15014,-0.29663 -0.41382,-0.457763 -0.26367,-0.164795 -0.60791,-0.164795 -0.36621,0 -0.64819,0.164795 -0.27832,0.164795 -0.43213,0.461426 -0.15015,0.29663 -0.15015,0.688476 0,0.380859 0.15015,0.670166 0.15381,0.289307 0.43213,0.446777 0.27832,0.157471 0.64819,0.157471 z"
         inkscape:connector-curvature="0" />
      <path
         id="path4478"
         style="letter-spacing:-0.2px;fill:#ffffff"
         d="m 120.36705,90.379441 q 0.3772,-0.435791 0.9668,-0.435791 0.16479,0 0.34424,0.03296 l -0.10254,0.571289 q -0.10254,-0.01099 -0.20142,-0.01099 -0.56763,0 -0.94116,0.351563 v 2.713623 h -0.60059 V 90.0352 h 0.4541 l 0.0806,0.344238 z"
         inkscape:connector-curvature="0" />
      <path
         id="path4480"
         style="letter-spacing:-0.2px;fill:#ffffff"
         d="m 123.92438,93.133348 q 0.24536,0 0.52002,-0.05493 0.27466,-0.05493 0.54931,-0.161133 l 0.18677,0.512696 q -0.26001,0.109863 -0.65918,0.183105 -0.39917,0.07324 -0.7251,0.07324 -0.86425,0 -1.34033,-0.461426 -0.47607,-0.465087 -0.47607,-1.428222 0,-0.600586 0.20874,-1.018067 0.2124,-0.421142 0.61157,-0.637207 0.39917,-0.216064 0.95947,-0.216064 0.49439,0 0.82764,0.230713 0.33325,0.227051 0.49438,0.596924 0.16114,0.366211 0.16114,0.787353 0,0.289307 -0.0806,0.578613 l -2.54883,0.01831 q 0.0806,0.494385 0.41016,0.74707 0.32959,0.249024 0.90088,0.249024 z m -0.24536,-2.633057 q -0.52002,0 -0.7837,0.300293 -0.26367,0.300293 -0.30029,0.809326 l 1.9812,-0.01831 q 0.007,-0.08789 0.007,-0.131836 0,-0.249024 -0.0916,-0.465088 -0.0915,-0.219727 -0.29663,-0.355225 -0.20141,-0.13916 -0.51635,-0.13916 z"
         inkscape:connector-curvature="0" />
      <path
         id="path4482"
         style="letter-spacing:-0.2px;fill:#ffffff"
         d="m 126.85915,93.69365 q -0.57862,-0.0037 -1.20484,-0.285644 l 0.19776,-0.53833 q 0.5896,0.263672 1.00708,0.270996 0.76171,-0.01099 0.76538,-0.501709 0,-0.172119 -0.0989,-0.281982 -0.0952,-0.109864 -0.2417,-0.175782 -0.14282,-0.06592 -0.39551,-0.146484 -0.33325,-0.106201 -0.54199,-0.20874 -0.20874,-0.106202 -0.35889,-0.314942 -0.14648,-0.20874 -0.14648,-0.552978 0.011,-1.025391 1.24878,-1.025391 0.56763,0 0.98877,0.194092 l -0.20874,0.545654 q -0.42114,-0.186767 -0.78003,-0.186767 -0.65552,0.0073 -0.68115,0.472412 0,0.13916 0.0879,0.230713 0.0879,0.09155 0.21606,0.150146 0.13184,0.05493 0.36621,0.131836 0.3479,0.109863 0.56763,0.223389 0.22339,0.109863 0.38452,0.340576 0.16113,0.227051 0.16113,0.604248 0,1.054687 -1.333,1.054687 z"
         inkscape:connector-curvature="0" />
      <path
         id="path4484"
         style="letter-spacing:-0.2px;fill:#ffffff"
         d="m 129.68404,90.569871 v 1.92627 q 0,0.161132 0.0696,0.314941 0.0733,0.150147 0.21973,0.249024 0.14648,0.09521 0.35523,0.09521 0.14648,0 0.33325,-0.02563 v 0.53833 q -0.23804,0.02197 -0.4834,0.02197 -0.34058,0 -0.57861,-0.146484 -0.23804,-0.146484 -0.35889,-0.391846 -0.12085,-0.249023 -0.12085,-0.549316 v -2.032471 h -0.64453 v -0.531006 h 0.64453 v -1.281738 h 0.56396 v 1.281738 h 0.98145 v 0.531006 h -0.98145 z"
         inkscape:connector-curvature="0" />
      <path
         id="path4486"
         style="letter-spacing:-0.2px;fill:#ffffff"
         d="m 133.7504,93.74492 q -0.20141,-0.351563 -0.30395,-0.725098 -0.0623,0.183106 -0.2417,0.336914 -0.17944,0.153809 -0.42847,0.2417 -0.24902,0.08789 -0.50537,0.08789 -0.36255,0 -0.65185,-0.113525 -0.28565,-0.113526 -0.4541,-0.351563 -0.1648,-0.238037 -0.1648,-0.593261 0,-0.344239 0.17212,-0.596924 0.17212,-0.256348 0.48706,-0.391846 0.3186,-0.135498 0.73975,-0.135498 0.50537,0 0.96313,0.26001 v -0.373535 q 0,-0.439453 -0.20508,-0.64087 -0.20508,-0.201416 -0.60791,-0.201416 -0.15381,0 -0.44311,0.02563 -0.28565,0.02197 -0.53467,0.06226 l -0.10254,-0.600586 q 0.44678,-0.05127 0.69946,-0.07324 0.25635,-0.02197 0.42847,-0.02197 0.6665,0 1.01074,0.351563 0.34424,0.351562 0.3479,1.047363 l 0.007,1.054688 q 0.004,0.53833 0.3186,1.105957 l -0.53101,0.245361 z m -1.34399,-0.618897 q 0.28564,0 0.50171,-0.09888 0.21606,-0.09888 0.33325,-0.281983 0.12085,-0.183105 0.12085,-0.421142 v -0.03296 q -0.1831,-0.10254 -0.40649,-0.157471 -0.22339,-0.05859 -0.46509,-0.05859 -0.39185,0 -0.62622,0.13916 -0.23438,0.135498 -0.23438,0.377198 0,0.15747 0.0952,0.27832 0.0989,0.120849 0.27466,0.19043 0.17578,0.06592 0.40649,0.06592 z"
         inkscape:connector-curvature="0" />
      <path
         id="path4488"
         style="letter-spacing:-0.2px;fill:#ffffff"
         d="m 135.43639,90.379441 q 0.37719,-0.435791 0.96679,-0.435791 0.1648,0 0.34424,0.03296 l -0.10254,0.571289 q -0.10254,-0.01099 -0.20141,-0.01099 -0.56763,0 -0.94117,0.351563 v 2.713623 h -0.60058 V 90.0352 h 0.4541 l 0.0806,0.344238 z"
         inkscape:connector-curvature="0" />
      <path
         id="path4490"
         style="letter-spacing:-0.2px;fill:#ffffff"
         d="m 138.06354,90.569871 v 1.92627 q 0,0.161132 0.0696,0.314941 0.0732,0.150147 0.21972,0.249024 0.14649,0.09521 0.35523,0.09521 0.14648,0 0.33325,-0.02563 v 0.53833 q -0.23804,0.02197 -0.4834,0.02197 -0.34057,0 -0.57861,-0.146484 -0.23804,-0.146484 -0.35889,-0.391846 -0.12085,-0.249023 -0.12085,-0.549316 v -2.032471 h -0.64453 v -0.531006 h 0.64453 v -1.281738 h 0.56397 v 1.281738 h 0.98144 v 0.531006 h -0.98144 z"
         inkscape:connector-curvature="0" />
      <path
         id="path4492"
         style="font-style:normal;font-variant:normal;font-weight:normal;font-stretch:normal;line-height:142.99999475%;font-family:Selawik;-inkscape-font-specification:Selawik;fill:#ffffff"
         d="m 139.86305,93.682664 q -0.18677,0 -0.30029,-0.109863 -0.10986,-0.113526 -0.10986,-0.300293 0,-0.186768 0.10986,-0.300293 0.11352,-0.113526 0.30029,-0.113526 0.18677,0 0.3003,0.113526 0.11352,0.113525 0.11352,0.300293 0,0.186767 -0.11352,0.300293 -0.11353,0.109863 -0.3003,0.109863 z"
         inkscape:connector-curvature="0" />
    </g>
    <g
       id="text4718"
       style="font-style:normal;font-weight:normal;font-size:5px;line-height:125%;font-family:sans-serif;letter-spacing:0px;word-spacing:0px;fill:#ffffff;fill-opacity:1;stroke:none;stroke-width:1px;stroke-linecap:butt;stroke-linejoin:miter;stroke-opacity:1">
      <path
         id="path4253"
         style="font-style:normal;font-variant:normal;font-weight:normal;font-stretch:normal;font-size:3.75px;font-family:Selawik;-inkscape-font-specification:Selawik;fill:#ffffff"
         d="m 28.880116,106.02305 -0.844117,-1.6626 h 0.344239 l 0.593261,1.19568 q 0.01099,0.0238 0.0293,0.0714 0.01831,0.0458 0.03479,0.0897 h 0.0055 q 0.01648,-0.0604 0.06775,-0.16113 l 0.620728,-1.19568 h 0.322266 l -0.866089,1.65527 v 0.97046 h -0.307617 v -0.96313 z"
         inkscape:connector-curvature="0" />
      <path
         id="path4255"
         style="font-style:normal;font-variant:normal;font-weight:normal;font-stretch:normal;font-size:3.75px;font-family:Selawik;-inkscape-font-specification:Selawik;fill:#ffffff"
         d="m 31.181751,107.03196 q -0.27832,0 -0.490722,-0.11536 -0.210572,-0.11535 -0.327759,-0.32592 -0.115357,-0.21241 -0.115357,-0.4889 0,-0.28015 0.115357,-0.49438 0.117187,-0.21423 0.327759,-0.33142 0.212402,-0.11719 0.490722,-0.11719 0.272827,0 0.479737,0.11719 0.206909,0.11719 0.318603,0.33142 0.111694,0.2124 0.109863,0.49438 0,0.27832 -0.113525,0.4889 -0.111694,0.21057 -0.318604,0.32592 -0.205078,0.11536 -0.476074,0.11536 z m 0,-0.28931 q 0.172119,0 0.303955,-0.0787 0.133667,-0.0806 0.20691,-0.22522 0.07507,-0.14649 0.07873,-0.33692 -0.0037,-0.19409 -0.07873,-0.3424 -0.07507,-0.14832 -0.20691,-0.22889 -0.131836,-0.0824 -0.303955,-0.0824 -0.183105,0 -0.324096,0.0824 -0.139161,0.0824 -0.216065,0.23072 -0.07507,0.14831 -0.07507,0.34424 0,0.19043 0.07507,0.33508 0.0769,0.14465 0.216065,0.22339 0.13916,0.0787 0.324096,0.0787 z"
         inkscape:connector-curvature="0" />
      <path
         id="path4257"
         style="font-style:normal;font-variant:normal;font-weight:normal;font-stretch:normal;font-size:3.75px;font-family:Selawik;-inkscape-font-specification:Selawik;fill:#ffffff"
         d="m 33.985096,107.05759 q -0.106201,-0.19043 -0.150147,-0.35888 -0.02746,0.0751 -0.106201,0.15014 -0.0769,0.0751 -0.201416,0.12635 -0.12268,0.0513 -0.280151,0.0513 -0.258179,0 -0.417481,-0.10071 -0.159301,-0.10071 -0.22705,-0.26001 -0.06775,-0.16113 -0.06775,-0.35339 v -1.10779 h 0.300293 v 1.0144 q 0,0.23987 0.09888,0.38452 0.100708,0.14466 0.379028,0.14466 0.206909,0 0.342407,-0.097 0.135498,-0.0989 0.135498,-0.32776 v -1.1206 h 0.300293 v 1.1792 q 0.0018,0.26916 0.159302,0.55297 l -0.265503,0.12268 z"
         inkscape:connector-curvature="0" />
      <path
         id="path4259"
         style="font-style:normal;font-variant:normal;font-weight:normal;font-stretch:normal;font-size:3.75px;font-family:Selawik;-inkscape-font-specification:Selawik;fill:#ffffff"
         d="m 36.478992,107.0283 q -0.276489,0 -0.476074,-0.1117 -0.199585,-0.11169 -0.303955,-0.32043 -0.10437,-0.21057 -0.10437,-0.49805 0,-0.28564 0.106201,-0.49805 0.106201,-0.2124 0.31128,-0.32775 0.205078,-0.11536 0.492553,-0.11353 0.150147,-0.002 0.2948,0.0275 0.144653,0.0275 0.245361,0.0751 l -0.07324,0.30395 q -0.223388,-0.1007 -0.465088,-0.1007 -0.305786,0 -0.443115,0.15747 -0.137329,0.15564 -0.137329,0.46692 0,0.32592 0.15564,0.48523 0.15747,0.1593 0.457763,0.1593 0.122681,0 0.217896,-0.0238 0.09705,-0.0256 0.254516,-0.0842 l 0.09338,0.27832 q -0.153808,0.0586 -0.316772,0.0915 -0.162964,0.033 -0.309449,0.033 z"
         inkscape:connector-curvature="0" />
      <path
         id="path4261"
         style="font-style:normal;font-variant:normal;font-weight:normal;font-stretch:normal;font-size:3.75px;font-family:Selawik;-inkscape-font-specification:Selawik;fill:#ffffff"
         d="m 38.698231,107.05759 q -0.100708,-0.17578 -0.151978,-0.36254 -0.03113,0.0916 -0.120849,0.16845 -0.08972,0.0769 -0.214234,0.12085 -0.124512,0.0439 -0.252685,0.0439 -0.181275,0 -0.325928,-0.0568 -0.142822,-0.0568 -0.227051,-0.17578 -0.0824,-0.11902 -0.0824,-0.29663 0,-0.17212 0.08606,-0.29846 0.08606,-0.12817 0.243531,-0.19592 0.159301,-0.0678 0.369873,-0.0678 0.252685,0 0.481567,0.13 v -0.18676 q 0,-0.21973 -0.102539,-0.32044 -0.102539,-0.10071 -0.303955,-0.10071 -0.0769,0 -0.221558,0.0128 -0.142822,0.011 -0.267334,0.0311 l -0.05127,-0.30029 q 0.223388,-0.0256 0.349731,-0.0366 0.128174,-0.011 0.214234,-0.011 0.333251,0 0.505371,0.17578 0.172119,0.17578 0.17395,0.52368 l 0.0037,0.52735 q 0.0018,0.26916 0.159302,0.55297 l -0.265503,0.12268 z m -0.671997,-0.30944 q 0.142822,0 0.250854,-0.0494 0.108032,-0.0494 0.166626,-0.14099 0.06043,-0.0916 0.06043,-0.21057 v -0.0165 q -0.09155,-0.0513 -0.203247,-0.0787 -0.111694,-0.0293 -0.232544,-0.0293 -0.195923,0 -0.31311,0.0696 -0.117188,0.0678 -0.117188,0.1886 0,0.0787 0.04761,0.13916 0.04944,0.0604 0.137329,0.0952 0.08789,0.033 0.203247,0.033 z"
         inkscape:connector-curvature="0" />
      <path
         id="path4263"
         style="font-style:normal;font-variant:normal;font-weight:normal;font-stretch:normal;font-size:3.75px;font-family:Selawik;-inkscape-font-specification:Selawik;fill:#ffffff"
         d="m 40.216175,105.15513 q 0.234375,0 0.393677,0.0915 0.159302,0.0915 0.238037,0.25269 0.08057,0.16113 0.08057,0.36987 v 1.11694 h -0.300293 v -1.03271 q 0,-0.22522 -0.09705,-0.36804 -0.09521,-0.14283 -0.316772,-0.14466 -0.157471,0.002 -0.296631,0.0586 -0.137329,0.0549 -0.24353,0.15564 l -0.0037,1.33117 H 39.37019 l 0.0037,-1.78344 h 0.221558 l 0.05676,0.17761 q 0.212403,-0.22522 0.563965,-0.22522 z"
         inkscape:connector-curvature="0" />
      <path
         id="path4265"
         style="font-style:normal;font-variant:normal;font-weight:normal;font-stretch:normal;font-size:3.75px;font-family:Selawik;-inkscape-font-specification:Selawik;fill:#ffffff"
         d="m 42.977406,107.03196 q -0.289307,-0.002 -0.602417,-0.14282 l 0.09888,-0.26917 q 0.294799,0.13184 0.50354,0.1355 0.380859,-0.005 0.38269,-0.25085 0,-0.0861 -0.04944,-0.141 -0.04761,-0.0549 -0.12085,-0.0879 -0.07141,-0.033 -0.197754,-0.0732 -0.166626,-0.0531 -0.270996,-0.10437 -0.10437,-0.0531 -0.179443,-0.15747 -0.07324,-0.10437 -0.07324,-0.27649 0.0055,-0.51269 0.62439,-0.51269 0.283813,0 0.494385,0.097 l -0.10437,0.27283 q -0.210572,-0.0934 -0.390015,-0.0934 -0.327759,0.004 -0.340576,0.2362 0,0.0696 0.04395,0.11536 0.04395,0.0458 0.108032,0.0751 0.06592,0.0275 0.183106,0.0659 0.17395,0.0549 0.283813,0.11169 0.111695,0.0549 0.192261,0.17029 0.08057,0.11353 0.08057,0.30213 0,0.52734 -0.666503,0.52734 z"
         inkscape:connector-curvature="0" />
      <path
         id="path4267"
         style="font-style:normal;font-variant:normal;font-weight:normal;font-stretch:normal;font-size:3.75px;font-family:Selawik;-inkscape-font-specification:Selawik;fill:#ffffff"
         d="m 44.954945,106.75181 q 0.12268,0 0.260009,-0.0275 0.137329,-0.0275 0.274659,-0.0806 l 0.09338,0.25634 q -0.130005,0.0549 -0.329589,0.0916 -0.199585,0.0366 -0.362549,0.0366 -0.432129,0 -0.670166,-0.23072 -0.238037,-0.23254 -0.238037,-0.71411 0,-0.30029 0.10437,-0.50903 0.106201,-0.21057 0.305786,-0.3186 0.199585,-0.10804 0.479736,-0.10804 0.247193,0 0.413819,0.11536 0.166625,0.11353 0.247192,0.29846 0.08057,0.18311 0.08057,0.39368 0,0.14465 -0.04028,0.28931 l -1.274414,0.009 q 0.04028,0.24719 0.205078,0.37354 0.164795,0.12451 0.45044,0.12451 z m -0.122681,-1.31653 q -0.26001,0 -0.391846,0.15015 -0.131836,0.15014 -0.150146,0.40466 l 0.9906,-0.009 q 0.0037,-0.0439 0.0037,-0.0659 0,-0.12452 -0.04578,-0.23255 -0.04578,-0.10986 -0.148315,-0.17761 -0.100708,-0.0696 -0.258179,-0.0696 z"
         inkscape:connector-curvature="0" />
      <path
         id="path4269"
         style="font-style:normal;font-variant:normal;font-weight:normal;font-stretch:normal;font-size:3.75px;font-family:Selawik;-inkscape-font-specification:Selawik;fill:#ffffff"
         d="m 47.304188,107.05759 q -0.100708,-0.17578 -0.151978,-0.36254 -0.03113,0.0916 -0.120849,0.16845 -0.08972,0.0769 -0.214234,0.12085 -0.124511,0.0439 -0.252685,0.0439 -0.181275,0 -0.325928,-0.0568 -0.142822,-0.0568 -0.227051,-0.17578 -0.0824,-0.11902 -0.0824,-0.29663 0,-0.17212 0.08606,-0.29846 0.08606,-0.12817 0.243531,-0.19592 0.159301,-0.0678 0.369873,-0.0678 0.252685,0 0.481567,0.13 v -0.18676 q 0,-0.21973 -0.102539,-0.32044 -0.102539,-0.10071 -0.303955,-0.10071 -0.0769,0 -0.221558,0.0128 -0.142822,0.011 -0.267334,0.0311 l -0.05127,-0.30029 q 0.223388,-0.0256 0.349731,-0.0366 0.128174,-0.011 0.214234,-0.011 0.333252,0 0.505371,0.17578 0.172119,0.17578 0.17395,0.52368 l 0.0037,0.52735 q 0.0018,0.26916 0.159302,0.55297 l -0.265503,0.12268 z m -0.671997,-0.30944 q 0.142822,0 0.250854,-0.0494 0.108032,-0.0494 0.166626,-0.14099 0.06043,-0.0916 0.06043,-0.21057 v -0.0165 q -0.09155,-0.0513 -0.203247,-0.0787 -0.111694,-0.0293 -0.232544,-0.0293 -0.195923,0 -0.31311,0.0696 -0.117188,0.0678 -0.117188,0.1886 0,0.0787 0.04761,0.13916 0.04944,0.0604 0.137329,0.0952 0.08789,0.033 0.203247,0.033 z"
         inkscape:connector-curvature="0" />
      <path
         id="path4271"
         style="font-style:normal;font-variant:normal;font-weight:normal;font-stretch:normal;font-size:3.75px;font-family:Selawik;-inkscape-font-specification:Selawik;fill:#ffffff"
         d="m 48.247181,105.37486 q 0.188599,-0.2179 0.483398,-0.2179 0.0824,0 0.17212,0.0165 l -0.05127,0.28564 q -0.05127,-0.005 -0.100708,-0.005 -0.283813,0 -0.470581,0.17578 v 1.35681 h -0.300293 v -1.78344 h 0.227051 l 0.04028,0.17212 z"
         inkscape:connector-curvature="0" />
      <path
         id="path4273"
         style="font-style:normal;font-variant:normal;font-weight:normal;font-stretch:normal;font-size:3.75px;font-family:Selawik;-inkscape-font-specification:Selawik;fill:#ffffff"
         d="m 50.036121,107.0283 q -0.276489,0 -0.476074,-0.1117 -0.199585,-0.11169 -0.303955,-0.32043 -0.10437,-0.21057 -0.10437,-0.49805 0,-0.28564 0.106201,-0.49805 0.106201,-0.2124 0.311279,-0.32775 0.205079,-0.11536 0.492554,-0.11353 0.150147,-0.002 0.2948,0.0275 0.144653,0.0275 0.245361,0.0751 l -0.07324,0.30395 q -0.223389,-0.1007 -0.465088,-0.1007 -0.305786,0 -0.443115,0.15747 -0.137329,0.15564 -0.137329,0.46692 0,0.32592 0.15564,0.48523 0.15747,0.1593 0.457763,0.1593 0.122681,0 0.217896,-0.0238 0.09705,-0.0256 0.254516,-0.0842 l 0.09338,0.27832 q -0.153809,0.0586 -0.316772,0.0915 -0.162964,0.033 -0.309449,0.033 z"
         inkscape:connector-curvature="0" />
      <path
         id="path4275"
         style="font-style:normal;font-variant:normal;font-weight:normal;font-stretch:normal;font-size:3.75px;font-family:Selawik;-inkscape-font-specification:Selawik;fill:#ffffff"
         d="m 51.861683,105.15513 q 0.234375,0 0.393677,0.0915 0.159301,0.0915 0.238037,0.25269 0.08057,0.16113 0.08057,0.36987 v 1.11694 h -0.300293 v -1.03271 q 0,-0.22522 -0.09705,-0.36804 -0.09705,-0.14283 -0.316772,-0.14283 -0.157471,0 -0.296631,0.0568 -0.13916,0.0549 -0.247192,0.15381 v 1.333 h -0.300293 v -2.77771 h 0.300293 v 1.15357 q 0.210571,-0.20691 0.545654,-0.20691 z"
         inkscape:connector-curvature="0" />
      <path
         id="path4277"
         style="font-style:normal;font-variant:normal;font-weight:normal;font-stretch:normal;font-size:3.75px;font-family:Selawik;-inkscape-font-specification:Selawik;fill:#ffffff"
         d="m 54.827991,104.47581 q -0.100708,0 -0.155639,0.0476 -0.0531,0.0458 -0.07324,0.13733 -0.02014,0.0897 -0.02014,0.23621 v 0.30395 l 0.437622,-0.002 v 0.26551 h -0.437622 v 1.51794 h -0.300293 v -1.51794 h -0.320434 v -0.26184 l 0.320434,-0.002 v -0.28564 q 0,-0.34424 0.115357,-0.54016 0.115356,-0.19775 0.410156,-0.19775 0.06226,0 0.234375,0.0183 l 0.0769,0.009 -0.06592,0.29297 q -0.06775,-0.007 -0.08606,-0.009 -0.08972,-0.0128 -0.135499,-0.0128 z"
         inkscape:connector-curvature="0" />
      <path
         id="path4279"
         style="font-style:normal;font-variant:normal;font-weight:normal;font-stretch:normal;font-size:3.75px;font-family:Selawik;-inkscape-font-specification:Selawik;fill:#ffffff"
         d="m 56.150013,107.03196 q -0.27832,0 -0.490723,-0.11536 -0.210571,-0.11535 -0.327758,-0.32592 -0.115357,-0.21241 -0.115357,-0.4889 0,-0.28015 0.115357,-0.49438 0.117187,-0.21423 0.327758,-0.33142 0.212403,-0.11719 0.490723,-0.11719 0.272827,0 0.479736,0.11719 0.206909,0.11719 0.318604,0.33142 0.111694,0.2124 0.109863,0.49438 0,0.27832 -0.113525,0.4889 -0.111695,0.21057 -0.318604,0.32592 -0.205078,0.11536 -0.476074,0.11536 z m 0,-0.28931 q 0.172119,0 0.303955,-0.0787 0.133667,-0.0806 0.206909,-0.22522 0.07507,-0.14649 0.07874,-0.33692 -0.0037,-0.19409 -0.07874,-0.3424 -0.07507,-0.14832 -0.206909,-0.22889 -0.131836,-0.0824 -0.303955,-0.0824 -0.183105,0 -0.324097,0.0824 -0.13916,0.0824 -0.216064,0.23072 -0.07507,0.14831 -0.07507,0.34424 0,0.19043 0.07507,0.33508 0.0769,0.14465 0.216064,0.22339 0.13916,0.0787 0.324097,0.0787 z"
         inkscape:connector-curvature="0" />
      <path
         id="path4281"
         style="font-style:normal;font-variant:normal;font-weight:normal;font-stretch:normal;font-size:3.75px;font-family:Selawik;-inkscape-font-specification:Selawik;fill:#ffffff"
         d="m 57.812611,105.37486 q 0.188598,-0.2179 0.483398,-0.2179 0.0824,0 0.172119,0.0165 l -0.05127,0.28564 q -0.05127,-0.005 -0.100708,-0.005 -0.283814,0 -0.470581,0.17578 v 1.35681 h -0.300293 v -1.78344 h 0.22705 l 0.04028,0.17212 z"
         inkscape:connector-curvature="0" />
      <path
         id="path4283"
         style="letter-spacing:0.2px;fill:#ffffff"
         d="m 60.451576,105.47007 v 0.96313 q 0,0.0806 0.03479,0.15748 0.03662,0.0751 0.109864,0.12451 0.07324,0.0476 0.177612,0.0476 0.07324,0 0.166626,-0.0128 v 0.26916 q -0.119019,0.011 -0.241699,0.011 -0.170288,0 -0.289307,-0.0732 -0.119019,-0.0733 -0.179443,-0.19593 -0.06043,-0.12451 -0.06043,-0.27465 v -1.01624 h -0.322266 v -0.2655 h 0.322266 v -0.64087 h 0.281982 v 0.64087 h 0.490723 v 0.2655 h -0.490723 z"
         inkscape:connector-curvature="0" />
      <path
         id="path4285"
         style="letter-spacing:-0.1px;fill:#ffffff"
         d="m 62.391079,105.15513 q 0.234375,0 0.393677,0.0915 0.159301,0.0915 0.238037,0.25269 0.08057,0.16113 0.08057,0.36987 v 1.11694 H 62.80307 v -1.03271 q 0,-0.22522 -0.09705,-0.36804 -0.09705,-0.14283 -0.316772,-0.14283 -0.157471,0 -0.296631,0.0568 -0.13916,0.0549 -0.247192,0.15381 v 1.333 h -0.300293 v -2.77771 h 0.300293 v 1.15357 q 0.210571,-0.20691 0.545654,-0.20691 z"
         inkscape:connector-curvature="0" />
      <path
         id="path4287"
         style="letter-spacing:-0.1px;fill:#ffffff"
         d="m 64.4151,106.75181 q 0.122681,0 0.26001,-0.0275 0.137329,-0.0275 0.274658,-0.0806 l 0.09338,0.25634 q -0.130005,0.0549 -0.32959,0.0916 -0.199585,0.0366 -0.362549,0.0366 -0.432129,0 -0.670166,-0.23072 -0.238037,-0.23254 -0.238037,-0.71411 0,-0.30029 0.10437,-0.50903 0.106201,-0.21057 0.305786,-0.3186 0.199585,-0.10804 0.479737,-0.10804 0.247192,0 0.413818,0.11536 0.166626,0.11353 0.247192,0.29846 0.08057,0.18311 0.08057,0.39368 0,0.14465 -0.04028,0.28931 l -1.274414,0.009 q 0.04028,0.24719 0.205078,0.37354 0.164795,0.12451 0.450439,0.12451 z m -0.122681,-1.31653 q -0.260009,0 -0.391845,0.15015 -0.131836,0.15014 -0.150147,0.40466 l 0.990601,-0.009 q 0.0037,-0.0439 0.0037,-0.0659 0,-0.12452 -0.04578,-0.23255 -0.04578,-0.10986 -0.148316,-0.17761 -0.100708,-0.0696 -0.258179,-0.0696 z"
         inkscape:connector-curvature="0" />
      <path
         id="path4289"
         style="font-style:normal;font-variant:normal;font-weight:normal;font-stretch:normal;font-size:3.75px;font-family:Selawik;-inkscape-font-specification:Selawik;fill:#ffffff"
         d="m 67.296059,106.75181 q 0.12268,0 0.260009,-0.0275 0.13733,-0.0275 0.274659,-0.0806 l 0.09338,0.25634 q -0.130004,0.0549 -0.329589,0.0916 -0.199585,0.0366 -0.362549,0.0366 -0.432129,0 -0.670166,-0.23072 -0.238037,-0.23254 -0.238037,-0.71411 0,-0.30029 0.10437,-0.50903 0.106201,-0.21057 0.305786,-0.3186 0.199585,-0.10804 0.479736,-0.10804 0.247193,0 0.413819,0.11536 0.166626,0.11353 0.247192,0.29846 0.08057,0.18311 0.08057,0.39368 0,0.14465 -0.04028,0.28931 l -1.274414,0.009 q 0.04028,0.24719 0.205078,0.37354 0.164795,0.12451 0.45044,0.12451 z m -0.122681,-1.31653 q -0.26001,0 -0.391846,0.15015 -0.131836,0.15014 -0.150146,0.40466 l 0.9906,-0.009 q 0.0037,-0.0439 0.0037,-0.0659 0,-0.12452 -0.04578,-0.23255 -0.04578,-0.10986 -0.148315,-0.17761 -0.100708,-0.0696 -0.258179,-0.0696 z"
         inkscape:connector-curvature="0" />
      <path
         id="path4291"
         style="letter-spacing:0.1px;fill:#ffffff"
         d="m 68.676674,105.37486 q 0.188599,-0.2179 0.483398,-0.2179 0.0824,0 0.172119,0.0165 l -0.05127,0.28564 q -0.05127,-0.005 -0.100708,-0.005 -0.283814,0 -0.470581,0.17578 v 1.35681 h -0.300293 v -1.78344 h 0.227051 l 0.04028,0.17212 z"
         inkscape:connector-curvature="0" />
      <path
         id="path4293"
         style="letter-spacing:0.1px;fill:#ffffff"
         d="m 70.080383,105.37486 q 0.188599,-0.2179 0.483399,-0.2179 0.0824,0 0.172119,0.0165 l -0.05127,0.28564 q -0.05127,-0.005 -0.100708,-0.005 -0.283813,0 -0.470581,0.17578 v 1.35681 h -0.300293 v -1.78344 H 70.0401 l 0.04028,0.17212 z"
         inkscape:connector-curvature="0" />
      <path
         id="path4295"
         style="font-style:normal;font-variant:normal;font-weight:normal;font-stretch:normal;font-size:3.75px;font-family:Selawik;-inkscape-font-specification:Selawik;fill:#ffffff"
         d="m 72.018764,107.03196 q -0.27832,0 -0.490722,-0.11536 -0.210571,-0.11535 -0.327759,-0.32592 -0.115356,-0.21241 -0.115356,-0.4889 0,-0.28015 0.115356,-0.49438 0.117188,-0.21423 0.327759,-0.33142 0.212402,-0.11719 0.490722,-0.11719 0.272828,0 0.479737,0.11719 0.206909,0.11719 0.318603,0.33142 0.111695,0.2124 0.109864,0.49438 0,0.27832 -0.113526,0.4889 -0.111694,0.21057 -0.318603,0.32592 -0.205078,0.11536 -0.476075,0.11536 z m 0,-0.28931 q 0.17212,0 0.303956,-0.0787 0.133667,-0.0806 0.206909,-0.22522 0.07507,-0.14649 0.07873,-0.33692 -0.0037,-0.19409 -0.07873,-0.3424 -0.07507,-0.14832 -0.206909,-0.22889 -0.131836,-0.0824 -0.303956,-0.0824 -0.183105,0 -0.324096,0.0824 -0.13916,0.0824 -0.216065,0.23072 -0.07507,0.14831 -0.07507,0.34424 0,0.19043 0.07507,0.33508 0.0769,0.14465 0.216065,0.22339 0.13916,0.0787 0.324096,0.0787 z"
         inkscape:connector-curvature="0" />
      <path
         id="path4297"
         style="font-style:normal;font-variant:normal;font-weight:normal;font-stretch:normal;font-size:3.75px;font-family:Selawik;-inkscape-font-specification:Selawik;fill:#ffffff"
         d="m 73.681362,105.37486 q 0.188599,-0.2179 0.483399,-0.2179 0.0824,0 0.172119,0.0165 l -0.05127,0.28564 q -0.05127,-0.005 -0.100708,-0.005 -0.283813,0 -0.470581,0.17578 v 1.35681 h -0.300293 v -1.78344 h 0.227051 l 0.04028,0.17212 z"
         inkscape:connector-curvature="0" />
      <path
         id="path4299"
         style="letter-spacing:0.11px;fill:#ffffff"
         d="m 76.655128,107.03196 q -0.27832,0 -0.490722,-0.11536 -0.210571,-0.11535 -0.327759,-0.32592 -0.115356,-0.21241 -0.115356,-0.4889 0,-0.28015 0.115356,-0.49438 0.117188,-0.21423 0.327759,-0.33142 0.212402,-0.11719 0.490722,-0.11719 0.272828,0 0.479737,0.11719 0.206909,0.11719 0.318603,0.33142 0.111695,0.2124 0.109864,0.49438 0,0.27832 -0.113526,0.4889 -0.111694,0.21057 -0.318603,0.32592 -0.205078,0.11536 -0.476075,0.11536 z m 0,-0.28931 q 0.17212,0 0.303956,-0.0787 0.133667,-0.0806 0.206909,-0.22522 0.07507,-0.14649 0.07873,-0.33692 -0.0037,-0.19409 -0.07873,-0.3424 -0.07507,-0.14832 -0.206909,-0.22889 -0.131836,-0.0824 -0.303956,-0.0824 -0.183105,0 -0.324096,0.0824 -0.13916,0.0824 -0.216065,0.23072 -0.07507,0.14831 -0.07507,0.34424 0,0.19043 0.07507,0.33508 0.07691,0.14465 0.216065,0.22339 0.13916,0.0787 0.324096,0.0787 z"
         inkscape:connector-curvature="0" />
      <path
         id="path4301"
         style="letter-spacing:0.11px;fill:#ffffff"
         d="m 79.002678,105.15513 q 0.234375,0 0.393677,0.0915 0.159301,0.0915 0.238037,0.25269 0.08057,0.16113 0.08057,0.36987 v 1.11694 h -0.300293 v -1.03271 q 0,-0.22522 -0.09705,-0.36804 -0.09521,-0.14283 -0.316772,-0.14466 -0.157471,0.002 -0.296631,0.0586 -0.137329,0.0549 -0.24353,0.15564 l -0.0037,1.33117 h -0.300293 l 0.0037,-1.78344 h 0.221557 l 0.05676,0.17761 q 0.212402,-0.22522 0.563965,-0.22522 z"
         inkscape:connector-curvature="0" />
      <path
         id="path4303"
         style="font-style:normal;font-variant:normal;font-weight:normal;font-stretch:normal;font-size:3.75px;font-family:Selawik;-inkscape-font-specification:Selawik;fill:#ffffff"
         d="m 80.392586,104.2103 h 0.300293 v 2.77588 h -0.300293 z"
         inkscape:connector-curvature="0" />
      <path
         id="path4305"
         style="font-style:normal;font-variant:normal;font-weight:normal;font-stretch:normal;font-size:3.75px;font-family:Selawik;-inkscape-font-specification:Selawik;fill:#ffffff"
         d="m 81.456429,104.64426 q -0.08789,0 -0.146485,-0.0586 -0.05859,-0.0586 -0.05859,-0.14648 0,-0.0861 0.05859,-0.14466 0.05859,-0.0586 0.146485,-0.0586 0.08606,0 0.144653,0.0586 0.05859,0.0586 0.05859,0.14466 0,0.0879 -0.05859,0.14648 -0.05859,0.0586 -0.144653,0.0586 z m -0.15564,0.55848 h 0.300293 v 1.78344 h -0.300293 z"
         inkscape:connector-curvature="0" />
      <path
         id="path4307"
         style="font-style:normal;font-variant:normal;font-weight:normal;font-stretch:normal;font-size:3.75px;font-family:Selawik;-inkscape-font-specification:Selawik;fill:#ffffff"
         d="m 83.060432,105.15513 q 0.234375,0 0.393677,0.0915 0.159302,0.0915 0.238037,0.25269 0.08057,0.16113 0.08057,0.36987 v 1.11694 h -0.300293 v -1.03271 q 0,-0.22522 -0.09705,-0.36804 -0.09521,-0.14283 -0.316773,-0.14466 -0.15747,0.002 -0.29663,0.0586 -0.13733,0.0549 -0.243531,0.15564 l -0.0037,1.33117 h -0.300293 l 0.0037,-1.78344 h 0.221558 l 0.05676,0.17761 q 0.212402,-0.22522 0.563964,-0.22522 z"
         inkscape:connector-curvature="0" />
      <path
         id="path4309"
         style="font-style:normal;font-variant:normal;font-weight:normal;font-stretch:normal;font-size:3.75px;font-family:Selawik;-inkscape-font-specification:Selawik;fill:#ffffff"
         d="m 85.184456,106.75181 q 0.122681,0 0.26001,-0.0275 0.137329,-0.0275 0.274658,-0.0806 l 0.09338,0.25634 q -0.130005,0.0549 -0.32959,0.0916 -0.199585,0.0366 -0.362549,0.0366 -0.432129,0 -0.670166,-0.23072 -0.238037,-0.23254 -0.238037,-0.71411 0,-0.30029 0.10437,-0.50903 0.106201,-0.21057 0.305786,-0.3186 0.199585,-0.10804 0.479736,-0.10804 0.247193,0 0.413819,0.11536 0.166626,0.11353 0.247192,0.29846 0.08057,0.18311 0.08057,0.39368 0,0.14465 -0.04028,0.28931 l -1.274414,0.009 q 0.04028,0.24719 0.205078,0.37354 0.164795,0.12451 0.45044,0.12451 z m -0.122681,-1.31653 q -0.26001,0 -0.391845,0.15015 -0.131836,0.15014 -0.150147,0.40466 l 0.990601,-0.009 q 0.0037,-0.0439 0.0037,-0.0659 0,-0.12452 -0.04578,-0.23255 -0.04578,-0.10986 -0.148315,-0.17761 -0.100708,-0.0696 -0.258179,-0.0696 z"
         inkscape:connector-curvature="0" />
      <path
         id="path4311"
         style="font-style:normal;font-variant:normal;font-weight:normal;font-stretch:normal;font-size:3.75px;font-family:Selawik;-inkscape-font-specification:Selawik;fill:#ffffff"
         d="m 86.400276,105.62937 q -0.102539,0 -0.172119,-0.0659 -0.06958,-0.0678 -0.06958,-0.16662 0,-0.10071 0.06958,-0.16663 0.06958,-0.0677 0.172119,-0.0677 0.10437,0 0.17395,0.0677 0.06958,0.0659 0.06958,0.16663 0,0.0989 -0.06958,0.16662 -0.06958,0.0659 -0.17395,0.0659 z m 0,1.3971 q -0.102539,0 -0.172119,-0.0659 -0.06958,-0.0678 -0.06958,-0.16663 0,-0.10071 0.06958,-0.16662 0.06958,-0.0678 0.172119,-0.0678 0.10437,0 0.17395,0.0678 0.06958,0.0659 0.06958,0.16662 0,0.0989 -0.06958,0.16663 -0.06958,0.0659 -0.17395,0.0659 z"
         inkscape:connector-curvature="0" />
      <path
         id="path4313"
         style="font-style:normal;font-variant:normal;font-weight:normal;font-stretch:normal;font-size:3.75px;font-family:Selawik;-inkscape-font-specification:Selawik;fill:#ffffff"
         d="m 88.174568,104.36045 h 0.307617 v 1.18836 h 1.358643 v -1.18836 h 0.307617 v 2.62573 h -0.307617 v -1.16089 h -1.358643 v 1.16089 h -0.307617 z"
         inkscape:connector-curvature="0" />
      <path
         id="path4315"
         style="font-style:normal;font-variant:normal;font-weight:normal;font-stretch:normal;font-size:3.75px;font-family:Selawik;-inkscape-font-specification:Selawik;fill:#ffffff"
         d="m 92.323738,106.41489 h -1.234131 l -0.206909,0.57129 h -0.342407 l 1.00708,-2.62573 h 0.318603 l 1.010743,2.62573 H 92.53614 Z m -0.102539,-0.27649 -0.476074,-1.28356 q -0.0073,-0.0293 -0.02014,-0.0806 -0.01282,-0.0531 -0.02197,-0.0952 h -0.0073 q -0.0037,0.0275 -0.02014,0.0934 -0.01648,0.0659 -0.0238,0.0824 l -0.463257,1.28356 h 1.032715 z"
         inkscape:connector-curvature="0" />
      <path
         id="path4317"
         style="font-style:normal;font-variant:normal;font-weight:normal;font-stretch:normal;font-size:3.75px;font-family:Selawik;-inkscape-font-specification:Selawik;fill:#ffffff"
         d="m 93.25758,104.36045 h 0.307617 v 2.34741 h 1.054687 v 0.27832 H 93.25758 Z"
         inkscape:connector-curvature="0" />
      <path
         id="path4319"
         style="font-style:normal;font-variant:normal;font-weight:normal;font-stretch:normal;font-size:3.75px;font-family:Selawik;-inkscape-font-specification:Selawik;fill:#ffffff"
         d="m 94.770031,107.27366 h 1.373291 v 0.25635 h -1.373291 z"
         inkscape:connector-curvature="0" />
      <path
         id="path4321"
         style="font-style:normal;font-variant:normal;font-weight:normal;font-stretch:normal;font-size:3.75px;font-family:Selawik;-inkscape-font-specification:Selawik;fill:#ffffff"
         d="m 96.582775,104.36045 h 0.307617 v 2.62573 h -0.307617 z"
         inkscape:connector-curvature="0" />
      <path
         id="path4323"
         style="font-style:normal;font-variant:normal;font-weight:normal;font-stretch:normal;font-size:3.75px;font-family:Selawik;-inkscape-font-specification:Selawik;fill:#ffffff"
         d="m 97.578869,104.35862 h 0.39917 l 1.314697,2.05994 q 0.02197,0.0366 0.05676,0.1062 0.03662,0.0678 0.05493,0.1062 h 0.0073 q -0.0092,-0.0678 -0.01465,-0.19043 -0.0055,-0.12268 -0.0055,-0.23071 v -1.84937 h 0.303955 l 0.0018,2.62573 h -0.377197 l -1.345825,-2.09655 q -0.02197,-0.033 -0.04944,-0.0934 -0.02747,-0.0604 -0.04578,-0.10803 h -0.01099 q 0.0073,0.0384 0.01099,0.16296 0.0037,0.12268 0.0037,0.23621 v 1.8988 h -0.303955 v -2.62756 z"
         inkscape:connector-curvature="0" />
      <path
         id="path4325"
         style="font-style:normal;font-variant:normal;font-weight:normal;font-stretch:normal;font-size:3.75px;font-family:Selawik;-inkscape-font-specification:Selawik;fill:#ffffff"
         d="m 100.38404,104.36045 h 0.30762 v 2.62573 h -0.30762 z"
         inkscape:connector-curvature="0" />
      <path
         id="path4327"
         style="font-style:normal;font-variant:normal;font-weight:normal;font-stretch:normal;font-size:3.75px;font-family:Selawik;-inkscape-font-specification:Selawik;fill:#ffffff"
         d="m 101.8672,104.63877 h -0.75623 v -0.27832 h 1.8219 v 0.27832 h -0.75805 v 2.34741 h -0.30762 z"
         inkscape:connector-curvature="0" />
      <path
         id="path4329"
         style="font-style:normal;font-variant:normal;font-weight:normal;font-stretch:normal;font-size:3.75px;font-family:Selawik;-inkscape-font-specification:Selawik;fill:#ffffff"
         d="m 103.34303,104.36045 h 0.30762 v 2.62573 h -0.30762 z"
         inkscape:connector-curvature="0" />
      <path
         id="path4331"
         style="font-style:normal;font-variant:normal;font-weight:normal;font-stretch:normal;font-size:3.75px;font-family:Selawik;-inkscape-font-specification:Selawik;fill:#ffffff"
         d="m 105.82228,106.41489 h -1.23413 l -0.20691,0.57129 h -0.34241 l 1.00708,-2.62573 h 0.3186 l 1.01075,2.62573 h -0.34058 z m -0.10254,-0.27649 -0.47608,-1.28356 q -0.007,-0.0293 -0.0201,-0.0806 -0.0128,-0.0531 -0.022,-0.0952 h -0.007 q -0.004,0.0275 -0.0202,0.0934 -0.0165,0.0659 -0.0238,0.0824 l -0.46326,1.28356 h 1.03272 z"
         inkscape:connector-curvature="0" />
      <path
         id="path4333"
         style="font-style:normal;font-variant:normal;font-weight:normal;font-stretch:normal;font-size:3.75px;font-family:Selawik;-inkscape-font-specification:Selawik;fill:#ffffff"
         d="m 106.75611,104.36045 h 0.30762 v 2.34741 h 1.05469 v 0.27832 h -1.36231 z"
         inkscape:connector-curvature="0" />
      <path
         id="path4335"
         style="font-style:normal;font-variant:normal;font-weight:normal;font-stretch:normal;font-size:3.75px;font-family:Selawik;-inkscape-font-specification:Selawik;fill:#ffffff"
         d="m 108.52125,104.36045 h 0.30762 v 2.62573 h -0.30762 z"
         inkscape:connector-curvature="0" />
      <path
         id="path4337"
         style="font-style:normal;font-variant:normal;font-weight:normal;font-stretch:normal;font-size:3.75px;font-family:Selawik;-inkscape-font-specification:Selawik;fill:#ffffff"
         d="m 109.27015,106.90012 1.3971,-2.26135 h -1.34766 v -0.27832 h 1.83838 v 0.0732 l -1.40991,2.27417 h 1.44653 v 0.27832 h -1.92444 v -0.0861 z"
         inkscape:connector-curvature="0" />
      <path
         id="path4339"
         style="font-style:normal;font-variant:normal;font-weight:normal;font-stretch:normal;font-size:3.75px;font-family:Selawik;-inkscape-font-specification:Selawik;fill:#ffffff"
         d="m 113.13917,106.41489 h -1.23413 l -0.20691,0.57129 h -0.34241 l 1.00708,-2.62573 h 0.31861 l 1.01074,2.62573 h -0.34058 z m -0.10254,-0.27649 -0.47607,-1.28356 q -0.007,-0.0293 -0.0201,-0.0806 -0.0128,-0.0531 -0.022,-0.0952 h -0.007 q -0.004,0.0275 -0.0201,0.0934 -0.0165,0.0659 -0.0238,0.0824 l -0.46325,1.28356 h 1.03271 z"
         inkscape:connector-curvature="0" />
      <path
         id="path4341"
         style="font-style:normal;font-variant:normal;font-weight:normal;font-stretch:normal;font-size:3.75px;font-family:Selawik;-inkscape-font-specification:Selawik;fill:#ffffff"
         d="m 114.56007,104.63877 h -0.75623 v -0.27832 h 1.8219 v 0.27832 h -0.75805 v 2.34741 h -0.30762 z"
         inkscape:connector-curvature="0" />
      <path
         id="path4343"
         style="font-style:normal;font-variant:normal;font-weight:normal;font-stretch:normal;font-size:3.75px;font-family:Selawik;-inkscape-font-specification:Selawik;fill:#ffffff"
         d="m 116.0359,104.36045 h 0.30762 v 2.62573 h -0.30762 z"
         inkscape:connector-curvature="0" />
      <path
         id="path4345"
         style="font-style:normal;font-variant:normal;font-weight:normal;font-stretch:normal;font-size:3.75px;font-family:Selawik;-inkscape-font-specification:Selawik;fill:#ffffff"
         d="m 118.09767,107.03196 q -0.3772,0 -0.65918,-0.17395 -0.28198,-0.17578 -0.43213,-0.48157 -0.15015,-0.30762 -0.15015,-0.69397 0,-0.39001 0.15015,-0.69946 0.15015,-0.30945 0.43213,-0.48706 0.28198,-0.17761 0.65918,-0.17761 0.38269,0 0.66467,0.17761 0.28198,0.17578 0.4303,0.48706 0.14831,0.30945 0.14465,0.69946 0,0.38819 -0.14831,0.6958 -0.14832,0.30579 -0.42847,0.47974 -0.28015,0.17395 -0.66284,0.17395 z m 0,-0.29297 q 0.28747,0 0.48889,-0.13 0.20325,-0.13001 0.30579,-0.36805 0.10437,-0.23803 0.10253,-0.55847 0,-0.32409 -0.10437,-0.56396 -0.10253,-0.2417 -0.30395,-0.37354 -0.20142,-0.13183 -0.48889,-0.13183 -0.28931,0 -0.49256,0.13183 -0.20324,0.13184 -0.30761,0.37354 -0.10437,0.23987 -0.10437,0.56396 0,0.32044 0.10437,0.55847 0.10437,0.23804 0.30761,0.36805 0.20325,0.13 0.49256,0.13 z"
         inkscape:connector-curvature="0" />
      <path
         id="path4347"
         style="font-style:normal;font-variant:normal;font-weight:normal;font-stretch:normal;font-size:3.75px;font-family:Selawik;-inkscape-font-specification:Selawik;fill:#ffffff"
         d="m 119.85914,104.35862 h 0.39917 l 1.3147,2.05994 q 0.022,0.0366 0.0568,0.1062 0.0366,0.0678 0.0549,0.1062 h 0.007 q -0.009,-0.0678 -0.0147,-0.19043 -0.005,-0.12268 -0.005,-0.23071 v -1.84937 h 0.30395 l 0.002,2.62573 h -0.37719 l -1.34583,-2.09655 q -0.022,-0.033 -0.0494,-0.0934 -0.0275,-0.0604 -0.0458,-0.10803 h -0.011 q 0.007,0.0384 0.011,0.16296 0.004,0.12268 0.004,0.23621 v 1.8988 h -0.30396 v -2.62756 z"
         inkscape:connector-curvature="0" />
      <path
         id="path4349"
         style="font-style:normal;font-variant:normal;font-weight:normal;font-stretch:normal;font-size:3.75px;font-family:Selawik;-inkscape-font-specification:Selawik;fill:#ffffff"
         d="m 122.41163,107.27366 h 1.37329 v 0.25635 h -1.37329 z"
         inkscape:connector-curvature="0" />
      <path
         id="path4351"
         style="font-style:normal;font-variant:normal;font-weight:normal;font-stretch:normal;font-size:3.75px;font-family:Selawik;-inkscape-font-specification:Selawik;fill:#ffffff"
         d="m 124.22438,104.36045 h 1.333 v 0.27832 h -1.02539 v 0.9082 h 0.91187 v 0.27649 h -0.91187 v 1.16272 h -0.30761 z"
         inkscape:connector-curvature="0" />
      <path
         id="path4353"
         style="font-style:normal;font-variant:normal;font-weight:normal;font-stretch:normal;font-size:3.75px;font-family:Selawik;-inkscape-font-specification:Selawik;fill:#ffffff"
         d="m 127.53859,106.41489 h -1.23414 l -0.2069,0.57129 h -0.34241 l 1.00708,-2.62573 h 0.3186 l 1.01074,2.62573 h -0.34057 z m -0.10254,-0.27649 -0.47608,-1.28356 q -0.007,-0.0293 -0.0201,-0.0806 -0.0128,-0.0531 -0.022,-0.0952 h -0.007 q -0.004,0.0275 -0.0201,0.0934 -0.0165,0.0659 -0.0238,0.0824 l -0.46326,1.28356 h 1.03272 z"
         inkscape:connector-curvature="0" />
      <path
         id="path4355"
         style="font-style:normal;font-variant:normal;font-weight:normal;font-stretch:normal;font-size:3.75px;font-family:Selawik;-inkscape-font-specification:Selawik;fill:#ffffff"
         d="m 128.47242,104.36045 h 0.30762 v 2.62573 h -0.30762 z"
         inkscape:connector-curvature="0" />
      <path
         id="path4357"
         style="font-style:normal;font-variant:normal;font-weight:normal;font-stretch:normal;font-size:3.75px;font-family:Selawik;-inkscape-font-specification:Selawik;fill:#ffffff"
         d="m 129.46852,104.36045 h 0.30761 v 2.34741 h 1.05469 v 0.27832 h -1.3623 z"
         inkscape:connector-curvature="0" />
      <path
         id="path4359"
         style="font-style:normal;font-variant:normal;font-weight:normal;font-stretch:normal;font-size:3.75px;font-family:Selawik;-inkscape-font-specification:Selawik;fill:#ffffff"
         d="m 131.23365,104.36045 h 1.33301 v 0.27832 h -1.02539 v 0.87341 h 0.91187 v 0.27649 h -0.91187 v 0.91919 h 1.08399 v 0.27832 h -1.39161 z"
         inkscape:connector-curvature="0" />
      <path
         id="path4361"
         style="font-style:normal;font-variant:normal;font-weight:normal;font-stretch:normal;font-size:3.75px;font-family:Selawik;-inkscape-font-specification:Selawik;fill:#ffffff"
         d="m 133.1288,104.36411 h 0.72509 q 0.68848,0 1.03821,0.31494 0.34973,0.31311 0.34973,0.96314 0,0.41016 -0.17761,0.71411 -0.17578,0.30396 -0.49622,0.46692 -0.3186,0.16296 -0.74157,0.16296 l -0.69763,0.004 v -2.62574 z m 0.70129,2.35108 q 0.34424,0 0.5896,-0.12451 0.24536,-0.12452 0.37353,-0.36255 0.12818,-0.23804 0.12818,-0.57495 0,-1.01075 -1.07483,-1.01075 l -0.40833,0.004 v 2.06909 h 0.39185 z"
         inkscape:connector-curvature="0" />
    </g>
  </g>
  <g
     id="g4221"
     style="display:none;fill:#1173aa;fill-opacity:1"
     transform="translate(0,448.61946)">
    <text
       xml:space="preserve"
       style="font-style:normal;font-weight:normal;line-height:0%;font-family:sans-serif;letter-spacing:0px;word-spacing:0px;fill:#1173aa;fill-opacity:1;stroke:none;stroke-width:1px;stroke-linecap:butt;stroke-linejoin:miter;stroke-opacity:1"
       x="24.620657"
       y="62.997444"
       id="text4162"><tspan
         sodipodi:role="line"
         id="tspan4164"
         x="24.620657"
         y="62.997444"
         style="font-style:normal;font-variant:normal;font-weight:normal;font-stretch:normal;font-size:40px;line-height:1.25;font-family:Selawik;-inkscape-font-specification:Selawik;fill:#1173aa;fill-opacity:1">:(</tspan></text>
    <text
       xml:space="preserve"
       style="font-style:normal;font-weight:normal;line-height:0%;font-family:sans-serif;letter-spacing:0px;word-spacing:0px;fill:#1173aa;fill-opacity:1;stroke:none;stroke-width:1px;stroke-linecap:butt;stroke-linejoin:miter;stroke-opacity:1"
       x="27.955734"
       y="82.877098"
       id="text4166"><tspan
         sodipodi:role="line"
         id="tspan4168"
         x="27.955734"
         y="82.877098"
         style="font-style:normal;font-variant:normal;font-weight:normal;font-stretch:normal;font-size:7.5px;line-height:142.99999475%;font-family:Selawik;-inkscape-font-specification:Selawik;fill:#1173aa;fill-opacity:1"><tspan
   style="line-height:142.99999475%;letter-spacing:-0.30000001px;fill:#1173aa;fill-opacity:1"
   id="tspan4170">Yo</tspan>ur PC <tspan
   style="line-height:142.99999475%;letter-spacing:-0.1px;fill:#1173aa;fill-opacity:1"
   id="tspan4172">ra</tspan>n<tspan
   style="line-height:142.99999475%;letter-spacing:-0.49000001px;fill:#1173aa;fill-opacity:1"
   id="tspan4174"> i</tspan>nto a <tspan
   style="line-height:142.99999475%;letter-spacing:-0.27000001px;fill:#1173aa;fill-opacity:1"
   id="tspan4176">pr</tspan>o<tspan
   id="tspan4178"
   style="line-height:142.99999475%;letter-spacing:-0.43000001px;fill:#1173aa;fill-opacity:1">b</tspan><tspan
   id="tspan4180"
   style="line-height:142.99999475%;letter-spacing:-0.18000001px;fill:#1173aa;fill-opacity:1">le</tspan><tspan
   style="line-height:142.99999475%;letter-spacing:-0.1px;fill:#1173aa;fill-opacity:1"
   id="tspan4182">m</tspan> t<tspan
   style="line-height:142.99999475%;letter-spacing:-0.14px;fill:#1173aa;fill-opacity:1"
   id="tspan4184">ha</tspan>t it<tspan
   style="line-height:142.99999475%;letter-spacing:-0.25999999px;fill:#1173aa;fill-opacity:1"
   id="tspan4186"> c</tspan><tspan
   id="tspan4188"
   style="line-height:142.99999475%;letter-spacing:-0.19px;fill:#1173aa;fill-opacity:1">ou</tspan><tspan
   style="line-height:142.99999475%;letter-spacing:-0.09px;fill:#1173aa;fill-opacity:1"
   id="tspan4190">ld</tspan><tspan
   id="tspan4192"
   style="line-height:142.99999475%;letter-spacing:-0.19px;fill:#1173aa;fill-opacity:1">n'</tspan>t</tspan><tspan
         sodipodi:role="line"
         x="27.955734"
         y="93.602097"
         style="font-style:normal;font-variant:normal;font-weight:normal;font-stretch:normal;font-size:7.5px;line-height:142.99999475%;font-family:Selawik;-inkscape-font-specification:Selawik;fill:#1173aa;fill-opacity:1"
         id="tspan4194">ha<tspan
   style="letter-spacing:-0.52999997px;fill:#1173aa;fill-opacity:1"
   id="tspan4196">n</tspan><tspan
   id="tspan4198"
   style="letter-spacing:-0.1px;fill:#1173aa;fill-opacity:1">dl</tspan>e, a<tspan
   style="letter-spacing:-0.23px;fill:#1173aa;fill-opacity:1"
   id="tspan4201">nd</tspan><tspan
   style="letter-spacing:-0.25px;fill:#1173aa;fill-opacity:1"
   id="tspan4203"> now</tspan> it nee<tspan
   style="letter-spacing:-0.25px;fill:#1173aa;fill-opacity:1"
   id="tspan4205">ds</tspan> to <tspan
   style="letter-spacing:-0.2px;fill:#1173aa;fill-opacity:1"
   id="tspan4207">restart</tspan>.</tspan></text>
    <text
       xml:space="preserve"
       style="font-style:normal;font-weight:normal;line-height:0%;font-family:sans-serif;letter-spacing:0px;word-spacing:0px;fill:#1173aa;fill-opacity:1;stroke:none;stroke-width:1px;stroke-linecap:butt;stroke-linejoin:miter;stroke-opacity:1"
       x="28.001209"
       y="106.98618"
       id="text4209"><tspan
         sodipodi:role="line"
         id="tspan4211"
         x="28.001209"
         y="106.98618"
         style="font-style:normal;font-variant:normal;font-weight:normal;font-stretch:normal;font-size:3.75px;line-height:1.25;font-family:Selawik;-inkscape-font-specification:Selawik;fill:#1173aa;fill-opacity:1">You can search for<tspan
   style="letter-spacing:0.2px;fill:#1173aa;fill-opacity:1"
   id="tspan4213"> t</tspan><tspan
   style="letter-spacing:-0.1px;fill:#1173aa;fill-opacity:1"
   id="tspan4215">he</tspan> e<tspan
   style="letter-spacing:0.1px;fill:#1173aa;fill-opacity:1"
   id="tspan4217">rr</tspan>or<tspan
   style="letter-spacing:0.11px;fill:#1173aa;fill-opacity:1"
   id="tspan4219"> on</tspan>line: NO_CORRESPONDING_PICTURE</tspan></text>
  </g>
</svg>
